<svg width="452" height="421" viewBox="0 0 452 421" fill="none" xmlns="http://www.w3.org/2000/svg">
<g clip-path="url(#clip0)">
<path d="M231.38 416.535C229.183 416.535 226.963 416.5 224.785 416.432L224.834 414.85C227.963 414.947 231.155 414.974 234.298 414.931L234.32 416.515C233.342 416.528 232.362 416.535 231.38 416.535ZM243.85 416.167L243.757 414.587C246.89 414.402 250.064 414.142 253.189 413.815L253.355 415.39C250.205 415.72 247.008 415.982 243.85 416.168V416.167ZM215.263 415.921C212.104 415.679 208.911 415.362 205.773 414.977L205.967 413.405C209.08 413.786 212.248 414.102 215.384 414.342L215.263 415.921ZM262.813 414.179L262.575 412.614C265.688 412.142 268.825 411.593 271.896 410.983L272.205 412.536C269.11 413.151 265.95 413.704 262.813 414.179ZM196.338 413.6C193.217 413.071 190.066 412.463 186.974 411.792L187.31 410.244C190.379 410.91 193.505 411.514 196.602 412.038L196.338 413.6ZM281.514 410.463L281.133 408.925C284.189 408.17 287.262 407.335 290.267 406.444L290.717 407.962C287.689 408.86 284.593 409.702 281.514 410.463ZM177.704 409.555C174.643 408.74 171.562 407.845 168.547 406.891L169.024 405.382C172.016 406.328 175.074 407.216 178.111 408.024L177.704 409.555ZM299.794 405.04L299.275 403.544C302.24 402.514 305.222 401.399 308.14 400.231L308.728 401.702C305.788 402.879 302.783 404.001 299.794 405.04L299.794 405.04ZM159.499 403.8C156.526 402.707 153.534 401.528 150.607 400.295L151.222 398.835C154.126 400.058 157.095 401.228 160.046 402.313L159.499 403.8ZM317.479 397.965L316.823 396.523C319.67 395.229 322.533 393.848 325.33 392.418L326.051 393.829C323.232 395.27 320.348 396.661 317.479 397.965ZM141.889 396.386C139.03 395.024 136.161 393.575 133.362 392.08L134.109 390.683C136.887 392.167 139.733 393.605 142.57 394.957L141.889 396.386ZM334.426 389.303L333.641 387.928C336.372 386.37 339.099 384.732 341.743 383.059L342.589 384.397C339.925 386.083 337.178 387.734 334.426 389.303ZM125.046 387.388C122.327 385.771 119.605 384.066 116.954 382.32L117.826 380.998C120.456 382.73 123.157 384.422 125.855 386.027L125.046 387.388ZM350.521 379.121L349.615 377.823C352.186 376.027 354.753 374.145 357.242 372.232L358.207 373.488C355.699 375.416 353.113 377.311 350.521 379.121ZM109.106 376.891C106.549 375.034 103.995 373.089 101.515 371.109L102.503 369.871C104.965 371.836 107.499 373.767 110.036 375.609L109.106 376.891ZM365.63 367.51L364.609 366.299C367.006 364.277 369.391 362.17 371.7 360.035L372.775 361.198C370.449 363.349 368.045 365.473 365.63 367.51ZM94.1967 364.988C91.8158 362.903 89.4503 360.734 87.1664 358.542L88.2631 357.399C90.5299 359.575 92.8773 361.727 95.2401 363.797L94.1967 364.988ZM379.626 354.565L378.499 353.453C380.708 351.215 382.894 348.898 384.994 346.568L386.171 347.627C384.055 349.976 381.853 352.31 379.626 354.565V354.565ZM80.4384 351.785C78.2539 349.488 76.0965 347.114 74.026 344.729L75.2225 343.691C77.277 346.058 79.4179 348.414 81.5861 350.693L80.4384 351.785ZM392.393 340.397L391.17 339.392C393.166 336.963 395.131 334.457 397.013 331.941L398.281 332.889C396.386 335.424 394.405 337.95 392.393 340.397ZM67.9427 337.391C65.9809 334.912 64.0493 332.353 62.2012 329.785L63.4866 328.86C65.3208 331.408 67.2377 333.948 69.1848 336.408L67.9427 337.391ZM403.82 325.119L402.51 324.229C404.277 321.629 406.007 318.952 407.652 316.272L409.002 317.102C407.343 319.801 405.6 322.499 403.82 325.119ZM56.8144 321.928C55.0885 319.282 53.3993 316.56 51.7933 313.835L53.1576 313.031C54.7517 315.735 56.4281 318.437 58.1408 321.062L56.8144 321.928ZM413.811 308.853L412.425 308.087C413.946 305.336 415.423 302.51 416.818 299.688L418.238 300.391C416.833 303.233 415.344 306.081 413.811 308.853ZM47.1486 305.523C45.6714 302.731 44.239 299.867 42.8913 297.01L44.3237 296.334C45.6613 299.169 47.0825 302.012 48.5485 304.782L47.1486 305.523ZM422.27 291.731L420.819 291.096C422.082 288.214 423.294 285.262 424.422 282.323L425.901 282.891C424.764 285.853 423.542 288.827 422.27 291.731V291.731ZM39.03 288.314C37.8157 285.4 36.6529 282.419 35.574 279.452L37.0628 278.911C38.1332 281.855 39.2872 284.813 40.4917 287.705L39.03 288.314ZM429.12 273.889L427.616 273.391C428.605 270.413 429.537 267.369 430.388 264.343L431.913 264.772C431.056 267.821 430.115 270.889 429.12 273.889L429.12 273.889ZM32.5229 270.418C31.5805 267.4 30.6949 264.317 29.8909 261.253L31.423 260.851C32.2208 263.892 33.0998 266.952 34.0348 269.947L32.5229 270.418ZM434.282 255.535L432.739 255.176C433.448 252.124 434.097 249.006 434.667 245.912L436.224 246.199C435.65 249.317 434.997 252.458 434.282 255.535L434.282 255.535ZM27.685 251.976C27.0245 248.883 26.4267 245.731 25.9085 242.608L27.4708 242.348C27.9855 245.448 28.5787 248.576 29.2342 251.645L27.685 251.976ZM437.734 236.785L436.164 236.57C436.59 233.468 436.95 230.305 437.234 227.168L438.811 227.311C438.525 230.472 438.163 233.659 437.734 236.785L437.734 236.785ZM24.5635 233.169C24.19 230.034 23.8833 226.84 23.6517 223.678L25.2318 223.562C25.4611 226.701 25.7658 229.87 26.1367 232.981L24.5635 233.169ZM439.456 217.799L437.874 217.728C438.015 214.589 438.087 211.406 438.087 208.267H439.67C439.671 211.43 439.599 214.637 439.456 217.799L439.456 217.799ZM23.1718 214.155C23.1177 212.213 23.0902 210.232 23.0898 208.267C23.0898 207.049 23.1003 205.832 23.1212 204.618L24.7051 204.646C24.6842 205.851 24.6738 207.058 24.6738 208.267C24.6742 210.217 24.7017 212.184 24.755 214.111L23.1718 214.155ZM438.075 206.058C438.042 202.918 437.937 199.735 437.763 196.598L439.344 196.51C439.52 199.671 439.626 202.878 439.659 206.041L438.075 206.058ZM25.0811 195.191L23.5002 195.092C23.6979 191.927 23.9709 188.731 24.3108 185.592L25.8855 185.762C25.5479 188.878 25.2776 192.05 25.0811 195.191ZM437.022 187.165C436.706 184.043 436.312 180.884 435.853 177.775L437.42 177.544C437.882 180.676 438.279 183.859 438.599 187.005L437.022 187.165ZM27.1186 176.381L25.5533 176.139C26.0386 173.006 26.6024 169.848 27.2292 166.752L28.7815 167.066C28.1597 170.138 27.6001 173.272 27.1186 176.381ZM434.254 168.45C433.65 165.36 432.969 162.25 432.228 159.206L433.767 158.832C434.513 161.899 435.2 165.033 435.809 168.146L434.254 168.45ZM30.8705 157.837L29.3341 157.452C30.1033 154.385 30.9552 151.292 31.8663 148.259L33.383 148.714C32.4792 151.724 31.6339 154.793 30.8705 157.837ZM429.778 150.066C428.895 147.051 427.929 144.017 426.909 141.049L428.407 140.534C429.435 143.525 430.408 146.582 431.298 149.621L429.778 150.066ZM36.3232 139.692L34.8289 139.167C35.8816 136.173 37.0181 133.165 38.2068 130.226L39.6756 130.82C38.4957 133.736 37.3676 136.721 36.3231 139.692H36.3232ZM423.627 132.174C422.471 129.259 421.234 126.334 419.949 123.479L421.393 122.829C422.689 125.705 423.936 128.653 425.1 131.59L423.627 132.174ZM43.4323 122.114L41.993 121.453C43.3159 118.573 44.7239 115.684 46.178 112.867L47.5856 113.593C46.1424 116.389 44.7452 119.255 43.4323 122.114ZM415.875 114.959C414.457 112.163 412.955 109.361 411.411 106.633L412.789 105.852C414.346 108.602 415.859 111.425 417.287 114.243L415.875 114.959ZM52.1259 105.275L50.7531 104.484C52.3332 101.741 53.9995 98.9949 55.706 96.3231L57.041 97.1753C55.3476 99.827 53.6937 102.552 52.126 105.275H52.1259ZM406.569 98.5158C404.895 95.8517 403.143 93.1976 401.36 90.6271L402.661 89.7246C404.458 92.3149 406.224 94.9891 407.91 97.6737L406.569 98.5158ZM62.3211 89.3112L61.0264 88.3987C62.8524 85.8092 64.7616 83.2282 66.7021 80.7273L67.9535 81.6978C66.0281 84.1802 64.1328 86.7415 62.3211 89.3112ZM395.795 82.9823C393.886 80.4825 391.898 77.9974 389.885 75.5962L391.099 74.5789C393.127 76.9987 395.13 79.5023 397.054 82.021L395.795 82.9823ZM73.9262 74.3515L72.7205 73.3245C74.7696 70.9179 76.9054 68.5226 79.0683 66.2049L80.2261 67.2852C78.0799 69.5855 75.9603 71.9631 73.9262 74.3515ZM383.645 68.485C381.517 66.1693 379.31 63.874 377.086 61.6638L378.203 60.5402C380.444 62.7678 382.668 65.08 384.811 67.4132L383.645 68.485ZM86.8392 60.5155L85.7316 59.3833C87.9966 57.1677 90.3404 54.9773 92.6974 52.873L93.7523 54.0547C91.4132 56.1427 89.0871 58.3165 86.8392 60.5155H86.8392ZM370.223 55.1466C367.891 53.032 365.484 50.9463 363.068 48.9476L364.078 47.7273C366.512 49.7411 368.938 51.8426 371.287 53.9735L370.223 55.1466ZM100.951 47.9152L99.9509 46.6871C102.401 44.6923 104.932 42.725 107.476 40.8396L108.42 42.1118C105.895 43.9832 103.382 45.9354 100.951 47.9152ZM355.637 43.0792C353.121 41.1849 350.532 39.3262 347.943 37.5549L348.837 36.248C351.446 38.0324 354.054 39.905 356.589 41.814L355.637 43.0792ZM116.143 36.6566L115.259 35.3428C117.881 33.5788 120.58 31.8516 123.282 30.2079L124.105 31.5612C121.424 33.1921 118.745 34.9066 116.143 36.6566ZM340.003 32.3875C337.326 30.731 334.577 29.1163 331.833 27.5874L332.604 26.204C335.369 27.7444 338.139 29.3719 340.837 31.0404L340.003 32.3875ZM132.289 26.8361L131.529 25.4465C134.303 23.9288 137.147 22.4564 139.983 21.0694L140.679 22.4923C137.865 23.8685 135.042 25.3297 132.289 26.8361L132.289 26.8361ZM323.449 23.1667C320.631 21.7627 317.744 20.4062 314.868 19.1353L315.509 17.6868C318.407 18.9675 321.316 20.3343 324.156 21.7492L323.449 23.1667ZM149.255 18.5387L148.626 17.0856C151.524 15.8293 154.49 14.6245 157.439 13.5043L158.001 14.9852C155.074 16.0965 152.132 17.292 149.255 18.5387L149.255 18.5387ZM306.108 15.5022C303.175 14.365 300.173 13.28 297.186 12.2778L297.69 10.776C300.7 11.7864 303.725 12.8795 306.68 14.0259L306.108 15.5022ZM166.923 11.8304L166.43 10.3255C169.44 9.33875 172.511 8.40958 175.557 7.56472L175.981 9.0905C172.958 9.92916 169.91 10.8509 166.923 11.8304L166.923 11.8304ZM288.146 9.47562C285.125 8.61452 282.044 7.81257 278.988 7.09221L279.351 5.55096C282.431 6.27673 285.536 7.08487 288.581 7.95216L288.146 9.47562ZM185.156 6.77089L184.803 5.22694C187.889 4.52203 191.033 3.87979 194.146 3.31836L194.428 4.87662C191.337 5.43417 188.218 6.07139 185.156 6.77086V6.77089ZM269.729 5.13413C266.645 4.5553 263.503 4.04028 260.391 3.60332L260.611 2.03502C263.747 2.47543 266.913 2.99433 270.022 3.57742L269.729 5.13413ZM203.777 3.41077L203.567 1.8409C206.703 1.42253 209.892 1.07067 213.045 0.796151L213.183 2.37375C210.053 2.6467 206.889 2.99548 203.777 3.41075L203.777 3.41077ZM250.992 2.50211C247.872 2.20824 244.696 1.98165 241.552 1.82969L241.63 0.247472C244.797 0.400947 247.996 0.629128 251.14 0.925285L250.992 2.50211ZM222.628 1.76627L222.561 0.18406C225.472 0.0626389 228.439 0.000774415 231.38 0L232.097 0.00112795L232.093 1.58492L231.38 1.58375C228.461 1.58453 225.516 1.646 222.628 1.76625V1.76627Z" fill="#E6E6E6"/>
<path d="M231.878 415.453V328.85C231.88 327.636 232.362 326.473 233.22 325.615C234.078 324.757 235.242 324.275 236.455 324.273H246.847C248.061 324.275 249.224 324.757 250.082 325.615C250.94 326.473 251.422 327.636 251.424 328.85V415.453C251.422 416.667 250.94 417.83 250.082 418.688C249.224 419.546 248.061 420.028 246.847 420.03H236.455C235.242 420.028 234.078 419.546 233.22 418.688C232.362 417.83 231.88 416.667 231.878 415.453Z" fill="#2F2E41"/>
<path d="M211.324 415.453V328.85C211.326 327.636 211.808 326.473 212.666 325.615C213.524 324.757 214.687 324.275 215.901 324.273H226.293C227.506 324.275 228.67 324.757 229.528 325.615C230.386 326.473 230.868 327.636 230.87 328.85V415.453C230.868 416.667 230.386 417.83 229.528 418.688C228.67 419.546 227.506 420.028 226.293 420.03H215.901C214.687 420.028 213.524 419.546 212.666 418.688C211.808 417.83 211.326 416.667 211.324 415.453Z" fill="#2F2E41"/>
<path d="M252.412 300.258H210.336C208.003 300.258 206.111 302.149 206.111 304.482V352.007C206.111 354.34 208.003 356.231 210.336 356.231H252.412C254.745 356.231 256.637 354.34 256.637 352.007V304.482C256.637 302.149 254.745 300.258 252.412 300.258Z" fill="#2F2E41"/>
<path d="M160.638 164.194C160.638 164.194 139.403 174.057 121.434 180.599C110.283 155.429 94.2187 156.371 94.2187 156.371L84.4794 163.077L86.2357 173.134L85.7567 189.577L83.2021 198.198L86.8679 198.86L88.9387 199.236L89.2509 198.954C88.7342 201.001 88.5251 203.114 88.6306 205.222L180.755 190.855C180.755 190.855 177.562 176.008 160.638 164.194Z" fill="#E6E6E6"/>
<path d="M133.434 293.648L139.611 302.004C140.997 303.881 143.643 304.277 145.519 302.891L215.174 251.418C217.05 250.031 217.447 247.386 216.06 245.51L209.884 237.154C208.497 235.278 205.852 234.881 203.975 236.267L134.321 287.74C132.444 289.127 132.047 291.772 133.434 293.648Z" fill="#FF0000"/>
<path d="M252.123 234.315L242.944 239.186C240.883 240.28 240.099 242.837 241.192 244.897L281.793 321.396C282.887 323.457 285.444 324.241 287.505 323.147L296.685 318.277C298.746 317.183 299.53 314.626 298.436 312.565L257.835 236.066C256.741 234.006 254.184 233.222 252.123 234.315Z" fill="#FF0000"/>
<path d="M277.857 268.266L262.865 278.204C260.574 279.42 257.83 278.734 256.736 276.674L240.179 245.478C239.086 243.417 240.056 240.761 242.347 239.546L252.551 234.131C254.842 232.915 257.586 233.6 258.68 235.661L280.025 262.334C281.118 264.395 280.148 267.051 277.857 268.266Z" fill="#CCCCCC"/>
<path d="M175.693 259.128L185.437 272.067C186.204 272.884 187.264 273.363 188.384 273.398C189.504 273.434 190.592 273.023 191.409 272.256L217.162 248.086C217.979 247.32 218.458 246.26 218.493 245.14C218.529 244.02 218.118 242.932 217.351 242.116L210.239 234.539C209.472 233.722 208.412 233.244 207.292 233.208C206.172 233.173 205.084 233.584 204.267 234.35L175.882 253.157C175.065 253.924 174.586 254.984 174.551 256.103C174.515 257.223 174.926 258.311 175.693 259.128Z" fill="#CCCCCC"/>
<path d="M254.983 233.07H207.765C205.432 233.07 203.541 234.961 203.541 237.294V337.599C203.541 339.932 205.432 341.823 207.765 341.823H254.983C257.316 341.823 259.208 339.932 259.208 337.599V237.294C259.208 234.961 257.316 233.07 254.983 233.07Z" fill="#CCCCCC"/>
<path d="M231.098 226.524C251.909 226.524 268.78 209.655 268.78 188.846C268.78 168.037 251.909 151.168 231.098 151.168C210.287 151.168 193.416 168.037 193.416 188.846C193.416 209.655 210.287 226.524 231.098 226.524Z" fill="#FF0000"/>
<path d="M235.49 201.426C233.162 201.361 230.264 201.28 228.035 199.65C227.37 199.145 226.824 198.501 226.435 197.762C226.045 197.023 225.822 196.209 225.781 195.375C225.741 194.782 225.838 194.189 226.065 193.64C226.293 193.091 226.644 192.603 227.091 192.212C228.256 191.228 229.958 190.995 231.793 191.536L229.892 177.648L231.288 177.457L233.522 193.783L232.357 193.249C231.007 192.629 229.153 192.314 228 193.287C227.717 193.542 227.497 193.858 227.356 194.211C227.216 194.565 227.158 194.946 227.189 195.325C227.223 195.946 227.39 196.552 227.679 197.102C227.969 197.652 228.373 198.133 228.865 198.513C230.6 199.781 232.91 199.945 235.53 200.018L235.49 201.426Z" fill="#2F2E41"/>
<path d="M222.993 178.846H215.409V180.254H222.993V178.846Z" fill="#2F2E41"/>
<path d="M246.932 178.846H239.348V180.254H246.932V178.846Z" fill="#2F2E41"/>
<path d="M206.204 159.402C200.097 158.706 195.367 152.855 194.847 146.918C194.229 139.855 198.343 133.147 203.986 129.184C209.888 125.039 217.241 123.309 224.356 122.927C238.235 122.237 251.874 126.732 262.622 135.539C267.953 139.966 272.932 145.606 274.819 152.417C276.457 158.333 275.124 165.035 270.365 169.178C269.188 170.193 267.814 170.954 266.328 171.411C264.842 171.868 263.278 172.013 261.733 171.835C258.041 171.452 254.634 169.511 251.686 167.367C245.95 163.197 241.24 157.387 234.252 155.208C229.128 153.61 222.478 155.017 219.347 159.65C218.636 160.711 218.176 161.919 218 163.183C217.935 163.453 217.976 163.737 218.113 163.978C218.25 164.22 218.473 164.4 218.738 164.482C219.008 164.555 219.296 164.518 219.539 164.38C219.782 164.242 219.961 164.014 220.037 163.745C220.859 157.909 228.036 155.731 233.072 157.064C240.414 159.007 245.343 165.559 251.368 169.721C254.535 171.91 258.137 173.66 262.022 173.974C265.371 174.236 268.695 173.215 271.318 171.118C276.465 167.054 278.433 160.065 277.295 153.773C275.977 146.486 271.072 140.241 265.69 135.406C254.78 125.707 240.615 120.475 226.019 120.752C218.574 120.923 210.806 122.46 204.393 126.394C198.172 130.211 193.363 136.595 192.735 144.017C192.182 150.55 195.687 157.382 201.704 160.244C203.122 160.916 204.644 161.345 206.204 161.514C207.553 161.668 207.542 159.555 206.204 159.402H206.204Z" fill="#2F2E41"/>
<path d="M88.87 197.959L93.3405 196.522C93.8195 195.604 92.943 196.193 93.3613 195.3C104.672 171.174 94.2187 156.371 94.2187 156.371L86.1323 161.939C86.1124 161.893 86.0961 161.845 86.076 161.799C86.076 161.799 84.639 158.607 82.4038 161.001C82.4038 161.001 89.4289 178.083 81.6055 199.316L90.7061 203.466L94.2186 199.316L94.2985 198.916L88.0122 198.345L88.87 197.959Z" fill="#CCCCCC"/>
<path d="M216.359 287.598C180.435 279.616 146.986 296.139 146.986 296.139L146.895 296.058L133.575 284.166L81.5256 199.236L94.2186 199.316C129.504 178.243 179.158 181.116 179.158 181.116C200.553 205.382 216.359 287.598 216.359 287.598Z" fill="#3F3D56"/>
<path opacity="0.1" d="M146.895 296.058L133.575 284.166L81.5256 199.236L94.2186 199.316C94.2186 199.316 144.809 266.125 146.895 296.058Z" fill="black"/>
<path d="M152.742 229.791C163.617 226.455 170.714 218.148 168.593 211.237C166.473 204.325 155.938 201.425 145.063 204.76C134.188 208.095 127.091 216.402 129.212 223.314C131.332 230.226 141.867 233.126 152.742 229.791Z" fill="#FF0000"/>
<path d="M41.5494 158.057C38.6811 168.658 28.8564 175.225 28.8564 175.225C28.8564 175.225 23.6822 164.601 26.5505 153.999C29.4188 143.398 39.2435 136.831 39.2435 136.831C39.2435 136.831 44.4178 147.455 41.5494 158.057Z" fill="#CCCCCC"/>
<path d="M15.4555 158.057C18.3239 168.658 28.1486 175.225 28.1486 175.225C28.1486 175.225 33.3228 164.601 30.4545 153.999C27.5862 143.398 17.7614 136.831 17.7614 136.831C17.7614 136.831 12.5872 147.455 15.4555 158.057Z" fill="#CCCCCC"/>
<path d="M19.6704 155.778C27.5412 163.439 28.5025 175.216 28.5025 175.216C28.5025 175.216 16.7029 174.572 8.83212 166.911C0.961349 159.25 0 147.473 0 147.473C0 147.473 11.7997 148.117 19.6704 155.778Z" fill="#3F3D56"/>
<path d="M37.3346 155.778C29.4638 163.439 28.5024 175.216 28.5024 175.216C28.5024 175.216 40.3021 174.572 48.1729 166.911C56.0436 159.25 57.005 147.473 57.005 147.473C57.005 147.473 45.2053 148.117 37.3346 155.778Z" fill="#3F3D56"/>
<path d="M436.544 277.739C433.676 288.341 423.851 294.907 423.851 294.907C423.851 294.907 418.677 284.284 421.545 273.682C424.414 263.08 434.238 256.514 434.238 256.514C434.238 256.514 439.413 267.137 436.544 277.739Z" fill="#CCCCCC"/>
<path d="M410.45 277.739C413.319 288.341 423.143 294.907 423.143 294.907C423.143 294.907 428.318 284.284 425.449 273.682C422.581 263.08 412.756 256.514 412.756 256.514C412.756 256.514 407.582 267.137 410.45 277.739Z" fill="#CCCCCC"/>
<path d="M414.665 275.46C422.536 283.121 423.497 294.898 423.497 294.898C423.497 294.898 411.698 294.254 403.827 286.593C395.956 278.932 394.995 267.155 394.995 267.155C394.995 267.155 406.795 267.799 414.665 275.46Z" fill="#3F3D56"/>
<path d="M432.329 275.46C424.459 283.121 423.497 294.898 423.497 294.898C423.497 294.898 435.297 294.254 443.168 286.593C451.039 278.932 452 267.155 452 267.155C452 267.155 440.2 267.799 432.329 275.46Z" fill="#3F3D56"/>
<path d="M313.998 419.592H150.649V421H313.998V419.592Z" fill="#3F3D56"/>
</g>
<defs>
<clipPath id="clip0">
<rect width="452" height="421" fill="white"/>
</clipPath>
</defs>
</svg>
