<svg width="851" height="485" viewBox="0 0 851 485" fill="none" xmlns="http://www.w3.org/2000/svg">
<g clip-path="url(#clip0)">
<path opacity="0.1" d="M511.582 349.568C528.022 348.632 548.419 337.49 564.278 332.562C583.049 326.745 601.894 321.148 620.813 315.772C686.677 297.046 753.247 281.091 820.523 267.905C826.801 266.671 833.09 265.467 839.388 264.293C829.577 243.111 814.377 224.871 795.306 211.394C795.794 206.757 796.042 202.098 796.049 197.435C796.049 123.747 737.112 64.0106 664.383 64.0106C641.991 63.9868 619.976 69.7615 600.483 80.7714C549.007 46.9376 481.819 26.4605 408.309 26.4605C303.853 26.4605 212.155 67.8087 160.195 130.073L404.396 171.295L554.169 196.566C383.426 201.657 212.155 206.719 41.9028 194.767C19.4287 216.495 5.20415 245.347 1.66017 276.393C-1.88381 307.438 5.47276 338.75 22.4726 364.976C22.4726 367.645 22.5842 370.291 22.7851 372.915C27.1219 374.156 31.31 375.36 35.0666 376.148C95.3755 388.878 156.071 399.531 217.154 408.108C172.142 435.84 117.325 439.764 65.402 451.508C90.5452 472.245 124.689 484.955 162.315 484.955H722.547C783.21 484.955 832.381 442.76 832.381 390.701C841.484 375.702 847.55 359.062 850.234 341.727C737.982 352.556 624.332 343.154 511.582 349.568Z" fill="#F97800"/>
<path opacity="0.1" d="M851 319.555C851.06 298.1 845.955 276.945 836.116 257.874C826.276 238.804 811.991 222.378 794.465 209.982C794.95 205.347 795.198 200.691 795.209 196.031C795.209 122.343 736.241 62.6281 663.542 62.6281C641.149 62.6042 619.132 68.3761 599.635 79.3815C548.159 45.5329 480.964 25.0483 407.453 25.0483C287.882 25.0483 184.959 79.27 139.314 157.024C136.777 156.875 134.226 156.793 131.652 156.793C58.9451 156.793 -0.0148796 216.53 -0.0148796 290.218C-0.0658411 316.246 7.46041 341.727 21.6469 363.557C21.6469 429.857 84.2743 483.603 161.497 483.603H721.743C782.399 483.603 831.57 441.4 831.57 389.341C844.327 368.299 851.049 344.157 851 319.555Z" fill="#F97800"/>
<path d="M694.993 237.81C693.93 236.994 692.684 236.448 691.363 236.219C689.972 235.9 688.551 235.699 687.138 235.476L668.824 232.837C666.975 232.495 665.089 232.395 663.215 232.54C662.274 232.617 661.359 232.88 660.521 233.314C659.683 233.748 658.94 234.344 658.335 235.067C657.789 235.74 657.49 236.579 657.487 237.446C657.589 238.317 657.873 239.158 658.32 239.913C658.497 240.266 658.649 240.631 658.774 241.006C658.949 241.847 659.167 242.678 659.428 243.496C659.509 243.673 659.615 243.838 659.741 243.987C659.744 244.029 659.744 244.071 659.741 244.113C659.54 245.139 660.187 246.209 659.897 247.197C659.644 248.045 658.818 248.558 658.298 249.264C657.95 249.765 657.758 250.357 657.745 250.966C657.732 251.575 657.898 252.175 658.223 252.69C658.781 253.552 659.793 254.14 660.083 255.128C660.462 256.429 659.436 257.685 658.521 258.688C656.838 260.536 655.282 262.495 653.864 264.553C653.466 265.059 653.209 265.662 653.12 266.3C653.038 267.593 654.281 268.73 654.065 270.016C653.894 271.027 652.905 271.644 652.049 272.246C648.888 274.327 646.351 277.672 646.098 281.455C645.286 275.436 642.79 269.768 638.897 265.103C637.833 263.824 636.666 262.539 636.227 260.918C636.063 260.272 636.033 259.58 635.81 258.956C635.066 256.986 632.701 256.139 631.667 254.325C630.923 253.047 630.923 251.404 630 250.282C629.078 249.16 627.627 248.907 626.832 247.822C626.434 247.087 626.096 246.321 625.82 245.533C625.486 244.889 625.017 244.326 624.444 243.882C624.334 243.795 624.22 243.713 624.101 243.637C624.225 243.527 624.324 243.392 624.392 243.241C624.46 243.089 624.495 242.926 624.496 242.76C624.496 241.891 623.633 241.318 622.882 240.887C621.914 240.337 620.97 239.742 620.047 239.126C621.053 238.657 621.925 237.944 622.584 237.052C623.41 235.72 623.751 234.146 623.551 232.592C623.5 231.338 623.032 230.138 622.219 229.181C621.751 228.683 621.163 228.326 620.672 227.858C619.4 226.616 618.969 224.78 618.441 223.086C617.741 220.856 616.648 218.515 614.61 217.333C613.628 216.76 612.482 216.493 611.522 215.891C610.563 215.289 609.759 214.152 610.094 213.059C610.317 212.316 611.009 211.803 611.478 211.171C612.037 210.354 612.252 209.35 612.075 208.376C611.898 207.402 611.344 206.537 610.533 205.968C609.983 205.619 609.306 205.314 609.194 204.675C608.763 204.563 608.373 204.332 608.068 204.009C607.762 203.685 607.555 203.283 607.468 202.846C607.301 201.972 607.301 201.074 607.468 200.2C607.662 198.818 607.853 197.44 608.041 196.068C608.369 196.204 608.72 196.274 609.075 196.274C609.43 196.274 609.781 196.204 610.109 196.068C610.753 197.112 611.5 198.088 612.341 198.981C614.606 201.654 616.37 204.713 617.548 208.012C617.972 209.201 618.403 210.532 619.504 211.164C619.884 211.379 620.315 211.491 620.687 211.721C621.146 212.041 621.539 212.444 621.848 212.91C622.74 214.092 623.633 215.267 624.518 216.448L624.563 216.627C624.587 216.731 624.627 216.832 624.682 216.924C624.846 217.109 625.075 217.226 625.321 217.251C628.059 217.883 631.131 218.463 633.504 216.969C635.646 215.631 636.584 212.985 638.399 211.216C639.686 209.96 641.508 208.986 641.873 207.217C641.438 207.083 641.011 206.927 640.593 206.749C640.965 206.377 641.337 205.946 641.843 205.455C642.578 204.736 643.241 203.947 643.822 203.099C644.45 202.053 644.949 200.935 645.31 199.769C646.743 195.686 648.181 191.601 649.624 187.513C650.308 185.58 650.993 183.633 651.856 181.752C652.748 179.716 653.805 177.761 654.779 175.762C657.294 170.562 659.235 165.104 660.567 159.484C660.803 158.717 660.881 157.911 660.797 157.113C660.589 155.827 659.614 154.816 658.684 153.902C657.75 152.891 656.684 152.008 655.516 151.278C654.929 150.914 654.276 150.67 653.594 150.56C652.912 150.45 652.215 150.477 651.543 150.639C649.639 151.196 648.441 153.144 648.002 155.099C647.563 157.053 647.727 159.068 647.541 161.045C647.273 163.906 646.291 166.671 646.053 169.54C645.927 171.198 646.053 172.878 645.853 174.535C645.486 176.704 644.73 178.789 643.621 180.689C641.208 185.221 637.943 189.244 634.003 192.537C633.549 192.916 633.08 193.281 632.634 193.689C632.634 193.37 632.686 193.043 632.73 192.723C632.407 192.807 632.09 192.919 631.786 193.058C631.823 192.682 631.785 192.303 631.674 191.943C631.079 190.166 628.431 189.713 627.955 187.907C627.875 187.46 627.833 187.008 627.828 186.554C627.672 184.971 626.593 183.633 626.222 182.094C625.879 180.675 626.14 179.121 625.478 177.806C624.913 176.983 624.249 176.234 623.499 175.576C622.605 174.556 621.961 173.342 621.617 172.03C621.52 171.666 621.431 171.287 621.327 170.923C621.44 170.098 621.348 169.258 621.059 168.478C620.382 166.798 618.634 165.72 618.002 164.018C617.511 162.695 617.726 161.045 616.797 160.019C616.302 159.529 615.698 159.164 615.034 158.956C611.629 157.631 608.056 156.788 604.418 156.451C602.38 156.266 600.134 156.162 598.676 154.727C596.972 153.062 596.89 150.067 594.897 148.781C593.141 147.644 590.657 148.484 589.295 150.082C589.091 150.317 588.902 150.565 588.73 150.825C588.481 149.829 588.428 148.794 588.574 147.777C588.574 147.525 588.626 147.265 588.648 147.034C592.007 145.937 594.865 143.682 596.712 140.672C596.712 140.672 596.712 140.672 596.712 140.716L596.801 140.947C597.017 141.489 597.359 142.01 597.865 142.069C598.201 142.065 598.526 141.947 598.787 141.735C599.236 141.423 599.65 141.064 600.022 140.664C600.21 140.456 600.389 140.241 600.558 140.018C600.9 139.553 601.195 139.055 601.435 138.531C601.805 137.742 602.056 136.903 602.179 136.041C602.313 135.179 602.328 134.294 602.477 133.432C602.616 132.765 602.797 132.107 603.02 131.463C603.094 131.247 603.169 131.031 603.236 130.816C603.303 130.6 603.399 130.31 603.474 130.073C603.939 128.544 604.19 126.958 604.218 125.36C604.218 125.093 604.218 124.825 604.218 124.558C604.19 123.515 603.955 122.488 603.526 121.537C603.097 120.586 602.482 119.731 601.718 119.02C600.439 117.972 598.743 117.534 597.805 116.114C597.195 115.163 597.061 113.936 596.704 112.821C596.318 111.487 595.566 110.287 594.533 109.359C593.499 108.43 592.226 107.809 590.857 107.566C589.209 107.386 587.554 107.84 586.23 108.837L586.126 108.919C585.389 109.482 584.763 110.178 584.282 110.971C583.299 110.7 582.399 110.189 581.663 109.484C580.919 108.793 580.346 107.923 579.595 107.254C578.893 106.612 578.031 106.169 577.099 105.973C576.168 105.777 575.201 105.834 574.299 106.139C573.37 106.511 572.542 107.098 571.884 107.851C571.226 108.604 570.756 109.503 570.512 110.473C570.103 112.004 570.178 113.765 569.322 115.044C568.66 116.04 567.574 116.53 566.815 117.437C566.344 118.011 566.022 118.693 565.878 119.422C565.788 119.829 565.745 120.246 565.751 120.663C565.751 120.849 565.751 121.034 565.796 121.213C565.796 121.213 565.796 121.272 565.796 121.302C565.822 121.506 565.865 121.707 565.923 121.904C566.134 122.658 566.513 123.354 567.031 123.941C567.522 124.503 568.135 124.945 568.824 125.234C569.105 125.343 569.393 125.435 569.687 125.509L570.572 125.71L570.884 125.784C569.816 127.788 569.223 130.011 569.151 132.28C569.078 134.549 569.529 136.805 570.468 138.873C570.468 139.081 570.416 139.289 570.393 139.497C570.272 142.424 570.401 145.356 570.78 148.261C570.884 149.413 570.944 150.684 570.237 151.598C569.915 151.957 569.553 152.279 569.158 152.557C569.56 152.036 569.969 151.523 570.386 151.011C569.337 149.955 567.678 149.821 566.19 149.925C563.311 150.14 560.516 150.993 558.008 152.423C556.341 153.382 554.63 154.653 552.726 154.43C551.603 154.303 550.494 153.686 549.401 153.984C548.786 154.235 548.212 154.576 547.697 154.995C547.29 155.286 546.8 155.438 546.299 155.426C545.131 153.991 543.323 153.017 541.925 151.851C540.333 150.435 538.876 148.875 537.573 147.19C535.163 144.284 532.76 141.37 530.395 138.434C528.401 135.967 526.355 133.298 526.006 130.14C525.97 129.826 525.953 129.511 525.954 129.196C526.002 127.695 526.191 126.202 526.519 124.736C526.607 124.382 526.607 124.012 526.519 123.658C526.296 122.915 525.44 122.64 524.704 122.476C524.801 121.904 524.868 121.317 524.905 120.759C525.321 114.367 524.868 107.871 526.222 101.613C526.735 99.2046 527.575 96.7666 529.309 95.0199C532.024 92.2773 536.569 91.6157 538.652 88.3677C540.392 85.6621 539.701 81.8343 537.514 79.4484C535.327 77.0625 531.957 76.0888 528.751 76.2077C527.851 76.1769 526.963 76.415 526.199 76.8915C525.486 77.5248 524.952 78.335 524.652 79.2403L521.461 86.9926C520.536 89.0109 519.755 91.0924 519.125 93.2212C518.232 96.4767 518.031 99.9107 517.325 103.196C517.325 105.723 515.696 108.875 514.803 111.201C513.806 113.817 512.728 116.404 511.827 119.072C511.604 119.741 510.823 121.726 510.34 123.532C510.157 123.638 509.987 123.765 509.834 123.911C509.445 124.408 509.092 124.932 508.778 125.479C508.101 126.371 507 126.847 506.256 127.709C505.512 128.571 505.356 130.154 506.39 130.586C506.6 130.656 506.817 130.703 507.037 130.727C507.172 130.738 507.307 130.761 507.439 130.794C508.554 131.106 508.993 132.511 508.83 133.67C508.666 134.83 508.086 135.9 507.989 137.059C507.788 139.111 508.993 141.021 510.154 142.745C511.355 144.615 512.682 146.4 514.126 148.09C515.175 149.264 516.358 150.319 517.414 151.449C521.438 155.582 524.637 160.413 528.252 164.902C529.553 166.597 531.032 168.147 532.664 169.526C533.729 170.358 534.844 171.125 536.004 171.822L542.222 175.762C542.928 176.278 543.726 176.654 544.573 176.869C544.85 176.906 545.13 176.906 545.406 176.869C545.443 177.055 545.473 177.233 545.518 177.419C546.001 179.366 547.065 181.135 547.184 183.12C547.303 185.105 547.125 187.134 547.266 189.14C547.4 190.991 547.809 192.857 547.913 194.678C548.121 198.186 547.259 201.65 546.425 205.084C545.168 210.108 544.409 215.237 541.962 219.793C541.278 221.049 540.474 222.328 540.474 223.762C540.474 223.933 540.474 224.111 540.519 224.282L539.403 224.914C539.076 225.1 538.749 225.286 538.451 225.479C537.038 226.401 535.528 227.419 534.947 229.01C534.479 230.295 534.694 231.767 534.129 233.016C534.102 233.072 534.072 233.126 534.04 233.179C533.445 234.339 532.262 235.201 531.994 236.472C531.793 237.446 532.18 238.479 531.994 239.445C531.994 239.445 531.994 239.445 531.994 239.482C531.825 239.968 531.691 240.464 531.592 240.969C531.584 241.134 531.599 241.299 531.637 241.459C531.779 242.023 532.09 242.529 532.53 242.909C532.798 243.166 533.089 243.397 533.4 243.6C533.717 243.808 534.045 244.001 534.382 244.18L534.575 244.284C534.858 244.432 535.141 244.574 535.431 244.708L535.624 244.789C535.959 244.938 536.301 245.072 536.643 245.191L536.881 245.265C537.149 245.354 537.424 245.436 537.7 245.503L537.886 245.562L538.057 245.599L538.801 245.756L539.076 245.808C539.403 245.862 539.738 245.907 540.08 245.941H540.378C540.631 245.941 540.876 245.979 541.121 245.986H541.471C541.732 245.986 541.984 245.986 542.215 245.986H542.483C542.832 245.986 543.182 245.934 543.532 245.889H543.643C543.956 245.845 544.268 245.793 544.581 245.726L544.819 245.674C545.109 245.607 545.399 245.54 545.689 245.451L545.845 245.406C546.195 245.302 546.544 245.191 546.887 245.057C548.071 244.571 549.219 244.002 550.323 243.355C551.067 242.946 551.811 242.53 552.555 242.151C553.107 241.873 553.673 241.625 554.251 241.407C555.658 240.807 557.188 240.552 558.714 240.664C559.467 240.767 560.213 240.918 560.946 241.118C560.946 241.199 560.946 241.281 560.946 241.363C561.551 244.93 562.149 248.498 562.739 252.066C563.713 251.365 564.743 250.746 565.818 250.215C565.617 250.754 565.485 251.316 565.424 251.888C565.379 252.33 565.379 252.776 565.424 253.218C565.491 253.924 565.64 254.705 565.216 255.262C564.955 255.604 564.472 255.797 564.331 256.184C564.227 256.579 564.202 256.99 564.256 257.395C564.226 257.857 564.03 258.293 563.705 258.623C563.38 258.953 562.948 259.156 562.486 259.194C562.699 259.792 562.704 260.445 562.5 261.046C562.296 261.648 561.895 262.163 561.363 262.509C561.051 262.658 560.761 262.848 560.5 263.074C560.245 263.402 560.074 263.787 560.001 264.196C559.018 267.877 556.996 271.198 554.177 273.762C553.119 274.592 552.154 275.534 551.298 276.572C550.769 277.375 550.332 278.235 549.996 279.136C548.012 283.982 545.999 288.831 543.956 293.682C542.825 296.395 541.724 299.152 541.367 302.073C540.474 310.086 533.333 316.879 534.672 324.832C534.943 326.819 535.744 328.696 536.993 330.266C538.481 332.057 540.712 333.083 542.944 333.915C548.679 336.145 554.727 337.364 560.753 338.59L570.215 340.53C572.071 340.957 573.955 341.255 575.853 341.422C578.137 341.578 580.48 341.363 582.704 341.942C584.081 342.299 585.397 342.961 586.818 343.035C588.038 343.102 589.541 342.842 590.262 343.838C590.984 344.834 590.426 346.149 591.11 347.034C592.211 348.439 594.897 347.034 596.094 348.357C596.422 348.865 596.672 349.418 596.838 349.999C597.02 350.359 597.273 350.677 597.582 350.936C597.655 351.356 597.685 351.781 597.671 352.207C597.516 353.933 597.157 355.635 596.6 357.276C595.708 360.294 594.817 363.314 593.93 366.337C593.591 367.404 593.342 368.498 593.186 369.607C593.13 370.146 593.13 370.689 593.186 371.227C593.342 372.87 594.287 374.565 595.856 375.1C597.074 375.421 598.369 375.262 599.472 374.654C600.536 374.099 601.534 373.425 602.447 372.647C604.094 371.402 605.541 369.913 606.739 368.232C610.459 362.672 609.254 355.15 611.865 349.003C613.598 344.901 616.975 341.571 618.098 337.245C618.361 336.422 618.392 335.542 618.188 334.703C617.719 333.216 616.135 332.369 614.654 331.834H614.587C613.371 331.401 612.129 331.046 610.868 330.771C610.555 330.704 610.235 330.652 609.916 330.6C609.208 330.025 608.645 329.292 608.272 328.459C608.213 328.017 608.096 327.585 607.922 327.174C607.804 326.996 607.645 326.85 607.459 326.747C607.272 326.643 607.064 326.586 606.851 326.579C606.107 326.505 605.11 326.772 604.299 326.713C602.64 326.594 601.54 324.966 600.052 324.215C598.564 323.465 596.95 323.65 595.365 323.762C594.799 323.839 594.222 323.804 593.669 323.658C593.009 323.354 592.405 322.939 591.884 322.431C590.968 321.72 589.9 321.23 588.762 321.002C587.625 320.774 586.45 320.813 585.33 321.116C584.618 321.403 583.865 321.574 583.099 321.621C581.648 321.54 580.622 320.246 579.55 319.265C576.62 316.582 572.446 315.876 568.891 314.114C568.346 313.912 567.893 313.522 567.611 313.014C567.202 312.003 568.124 310.993 568.958 310.301L575.072 305.225C581.767 299.665 590.136 295.48 593.245 287.327C593.569 286.234 594.072 285.201 594.733 284.272C594.974 283.988 595.251 283.738 595.559 283.529C596.911 282.653 598.551 282.333 600.134 282.637C602.063 283.068 603.891 283.865 605.519 284.985C608.182 286.596 610.774 288.33 613.293 290.188C615.788 291.97 618.162 293.917 620.397 296.016C624.302 299.732 627.553 304.14 631.191 308.146C634.828 312.152 638.987 315.891 644.037 317.808C649.088 319.726 655.196 319.644 659.533 316.426C664.539 312.71 666.146 306.065 667.41 299.97C670.2 297.279 671.04 293.184 672.402 289.564C673.257 287.267 674.351 285.104 675.273 282.815C676.374 280.124 677.237 277.345 678.1 274.572C679.078 271.788 679.741 268.904 680.079 265.973C680.436 261.342 679.193 256.414 680.495 252.066C682.213 251.687 683.776 250.721 685.464 250.156C687.979 249.331 690.671 249.464 693.334 249.479H693.506C694.423 249.577 695.347 249.359 696.124 248.862C697.017 248.119 697.158 246.848 697.203 245.696C697.307 242.849 697.128 239.653 694.993 237.81ZM587.212 111.023C586.597 111.175 585.961 111.22 585.33 111.156L587.212 111.023Z" fill="url(#paint0_linear)"/>
<path d="M590.143 158.042C589.242 158.806 588.187 159.367 587.049 159.685L581.774 161.573C578.91 162.598 575.92 163.631 572.9 163.26C571.211 163.052 563.973 161.989 562.88 160.673C561.214 158.637 567.053 155.641 569.047 153.924C569.498 153.6 569.917 153.231 570.296 152.824C571.04 151.917 570.944 150.646 570.839 149.502C570.461 146.602 570.332 143.675 570.453 140.753C570.51 140.057 570.61 139.364 570.75 138.68C571.494 135.261 574.678 136.509 577.192 137.416C580.219 138.399 583.145 139.665 585.933 141.199C586.782 141.637 587.52 142.262 588.09 143.028C589.191 144.693 588.752 146.878 588.573 148.974C588.417 150.602 588.425 152.163 589.444 153.344C589.957 153.796 590.427 154.294 590.85 154.831C591.088 155.372 591.148 155.975 591.021 156.552C590.894 157.129 590.586 157.651 590.143 158.042Z" fill="#BE6F72"/>
<path d="M517.288 104.474C518.031 101.182 518.195 97.7849 519.088 94.5219C519.718 92.4003 520.498 90.3263 521.424 88.3156L524.704 80.6673C525.004 79.7642 525.538 78.9565 526.251 78.326C527.016 77.8527 527.904 77.6149 528.803 77.6422C532.009 77.5233 535.379 78.5193 537.566 80.8754C539.753 83.2316 540.445 87.0446 538.704 89.7427C536.621 92.9908 532.076 93.6449 529.361 96.3801C527.627 98.1268 526.787 100.557 526.274 102.958C524.92 109.202 525.374 115.675 524.957 122.053C524.823 124.037 524.436 126.304 522.725 127.33C521.691 127.836 520.541 128.059 519.393 127.977L514.513 128.058C513.695 128.058 510.727 128.571 510.183 127.954C509.231 126.877 511.403 121.51 511.798 120.313C512.675 117.66 513.754 115.073 514.773 112.464C515.658 110.138 517.288 106.994 517.288 104.474Z" fill="#BE6F72"/>
<path d="M618.046 337.981C616.923 342.277 613.546 345.622 611.813 349.717C609.202 355.849 610.377 363.349 606.687 368.893C605.49 370.578 604.043 372.069 602.395 373.316C601.482 374.092 600.483 374.763 599.419 375.315C598.317 375.923 597.022 376.083 595.804 375.761C594.235 375.226 593.29 373.531 593.134 371.896C593.078 371.36 593.078 370.82 593.134 370.283C593.29 369.177 593.539 368.085 593.878 367.02C594.77 364.013 595.66 361 596.548 357.982C597.104 356.346 597.463 354.649 597.619 352.928C597.716 351.055 596.526 348.617 597.032 346.87C597.262 346.082 598.125 345.384 598.519 344.722C599.079 343.77 599.509 342.748 599.799 341.682C600.409 339.609 600.825 337.394 602.105 335.647C602.94 334.611 603.916 333.698 605.006 332.934C605.81 332.23 606.753 331.7 607.773 331.381C608.763 331.206 609.78 331.255 610.749 331.522C612.011 331.791 613.253 332.144 614.468 332.577H614.535C616.023 333.112 617.6 333.937 618.069 335.439C618.296 336.272 618.289 337.152 618.046 337.981Z" fill="#3F3D56"/>
<path d="M697.195 246.603C697.15 247.755 697.009 249.041 696.116 249.762C695.339 250.259 694.416 250.476 693.498 250.379H693.297C690.641 250.379 687.941 250.23 685.427 251.055C683.515 251.687 681.76 252.846 679.766 253.077C677.021 253.389 674.44 251.888 672.007 250.579C669.717 249.347 667.366 248.23 664.963 247.235C663.386 246.588 660.165 246.172 659.406 244.447C659.146 243.631 658.927 242.803 658.751 241.965C658.626 241.59 658.475 241.225 658.297 240.872C657.851 240.119 657.567 239.281 657.464 238.412C657.467 237.546 657.766 236.707 658.312 236.034C658.919 235.316 659.662 234.725 660.498 234.295C661.334 233.865 662.248 233.605 663.185 233.529C665.059 233.383 666.945 233.483 668.794 233.826L687.108 236.457C688.521 236.658 689.942 236.859 691.333 237.2C692.654 237.429 693.9 237.975 694.963 238.791C697.128 240.605 697.307 243.793 697.195 246.603Z" fill="#3F3D56"/>
<path d="M681.098 251.36C678.866 256.065 680.473 261.632 680.071 266.835C679.734 269.759 679.07 272.636 678.092 275.412C677.229 278.177 676.366 280.949 675.266 283.633C674.343 285.863 673.25 288.092 672.394 290.367C671.033 293.994 670.163 298.074 667.403 300.773C666.138 306.853 664.531 313.497 659.525 317.184C655.173 320.395 649.111 320.506 644.03 318.567C638.949 316.627 634.821 312.91 631.183 308.904C627.546 304.898 624.295 300.535 620.389 296.803C618.151 294.705 615.773 292.76 613.27 290.984C610.751 289.155 608.16 287.436 605.497 285.825C603.867 284.711 602.039 283.916 600.111 283.484C598.528 283.181 596.889 283.5 595.536 284.376C595.229 284.586 594.951 284.836 594.711 285.119C594.048 286.045 593.546 287.075 593.223 288.167C590.099 296.298 581.715 300.475 575.02 306.02L568.905 311.082C568.072 311.773 567.15 312.784 567.559 313.787C567.84 314.295 568.294 314.685 568.838 314.887C572.394 316.641 576.567 317.348 579.498 320.023C580.569 321.004 581.596 322.298 583.047 322.372C583.812 322.327 584.566 322.159 585.278 321.874C586.398 321.571 587.572 321.532 588.709 321.759C589.846 321.986 590.915 322.473 591.832 323.182C592.353 323.69 592.956 324.105 593.617 324.409C594.17 324.555 594.747 324.59 595.313 324.513C596.898 324.401 598.579 324.26 600 324.966C601.42 325.672 602.588 327.337 604.247 327.456C605.058 327.515 606.025 327.248 606.799 327.322C607.012 327.329 607.22 327.386 607.406 327.49C607.593 327.593 607.752 327.74 607.87 327.917C608.044 328.325 608.161 328.755 608.22 329.195C608.525 330.243 609.551 330.883 610.221 331.745C611.247 333.068 611.396 334.866 611.292 336.539C610.955 341.768 608.622 346.669 604.775 350.23C603.683 351.345 602.29 352.12 600.766 352.46C600.002 352.619 599.208 352.535 598.495 352.219C597.783 351.903 597.187 351.371 596.794 350.698C596.628 350.119 596.377 349.568 596.05 349.063C594.852 347.747 592.167 349.145 591.066 347.74C590.381 346.863 590.872 345.458 590.218 344.551C589.563 343.644 587.986 343.808 586.773 343.756C585.353 343.682 584.036 343.013 582.66 342.663C580.428 342.084 578.092 342.299 575.809 342.143C573.911 341.976 572.027 341.678 570.17 341.251L560.708 339.319C554.682 338.092 548.635 336.851 542.899 334.658C540.705 333.826 538.496 332.8 536.948 331.016C535.701 329.449 534.899 327.574 534.627 325.59C533.281 317.66 540.422 310.881 541.322 302.891C541.642 299.977 542.81 297.227 543.911 294.522C545.929 289.685 547.943 284.847 549.951 280.006C550.276 279.104 550.7 278.242 551.216 277.434C552.072 276.399 553.037 275.46 554.095 274.632C556.914 272.076 558.936 268.762 559.919 265.088C559.992 264.679 560.163 264.294 560.418 263.966C560.681 263.745 560.971 263.558 561.281 263.408C561.812 263.063 562.212 262.549 562.415 261.949C562.619 261.349 562.615 260.698 562.404 260.101C562.866 260.063 563.298 259.86 563.623 259.53C563.948 259.2 564.144 258.764 564.174 258.302C564.12 257.9 564.145 257.491 564.249 257.098C564.427 256.711 564.874 256.518 565.134 256.176C565.558 255.619 565.409 254.838 565.342 254.14C565.298 253.697 565.298 253.252 565.342 252.809C565.505 251.235 566.21 249.767 567.336 248.654C569.114 246.908 571.643 247.361 574.098 246.945C576.546 246.417 578.938 245.652 581.239 244.663C587.694 242.122 594.49 240.551 601.406 240.003C608.356 239.456 615.336 240.567 621.773 243.243C622.709 243.622 623.592 244.122 624.399 244.73C624.972 245.171 625.441 245.732 625.775 246.372C626.05 247.159 626.388 247.922 626.787 248.654C627.583 249.739 629.085 250.089 629.956 251.115C630.826 252.14 630.9 253.872 631.622 255.143C632.656 256.957 635.051 257.797 635.765 259.766C635.989 260.391 636.018 261.074 636.182 261.721C636.584 263.341 637.789 264.62 638.853 265.898C642.752 270.559 645.249 276.229 646.053 282.25C646.291 278.482 648.828 275.145 652.004 273.063C652.86 272.506 653.849 271.889 654.02 270.878C654.236 269.6 652.994 268.462 653.076 267.162C653.166 266.527 653.423 265.927 653.819 265.423C655.237 263.369 656.793 261.415 658.476 259.573C659.391 258.57 660.418 257.343 660.038 256.02C659.748 255.032 658.736 254.452 658.179 253.59C657.853 253.076 657.686 252.477 657.7 251.869C657.713 251.261 657.905 250.67 658.253 250.171C658.774 249.464 659.599 248.952 659.852 248.112C660.142 247.123 659.495 246.053 659.696 245.035C659.968 244.219 660.508 243.52 661.229 243.05C662.216 242.152 663.338 241.415 664.554 240.865C666.517 240.122 668.704 240.397 670.787 240.686C674.269 241.17 678.174 241.913 680.138 244.826C681.395 246.647 682.035 249.412 681.098 251.36Z" fill="#65617D"/>
<path opacity="0.1" d="M697.195 246.603C697.151 247.755 697.009 249.041 696.117 249.762C695.339 250.259 694.416 250.476 693.498 250.379H693.297C693.602 248.833 695.484 247.948 695.812 246.38C695.868 245.898 695.824 245.41 695.683 244.946C695.542 244.482 695.307 244.051 694.993 243.682C693.401 241.534 690.842 240.345 688.298 239.475C681.111 237.013 673.411 236.437 665.937 237.803C663.905 238.133 661.928 238.741 660.061 239.609C659.442 239.996 658.846 240.417 658.275 240.872C657.829 240.119 657.545 239.281 657.442 238.412C657.445 237.546 657.744 236.707 658.29 236.034C658.897 235.316 659.64 234.725 660.476 234.295C661.312 233.865 662.225 233.605 663.163 233.529C665.037 233.383 666.923 233.483 668.771 233.826L687.086 236.457C688.499 236.658 689.92 236.859 691.311 237.2C692.632 237.429 693.878 237.975 694.941 238.791C697.128 240.605 697.307 243.793 697.195 246.603Z" fill="black"/>
<path opacity="0.1" d="M618.046 337.981C616.923 342.277 613.546 345.622 611.813 349.717C609.202 355.849 610.377 363.349 606.687 368.893C605.49 370.578 604.043 372.069 602.395 373.316C601.482 374.092 600.483 374.763 599.419 375.315C598.317 375.923 597.022 376.083 595.804 375.761C594.235 375.226 593.29 373.531 593.134 371.896C593.078 371.36 593.078 370.82 593.134 370.283L593.178 370.402C593.825 371.963 594.882 373.598 596.548 373.873C597.174 373.918 597.802 373.834 598.393 373.626C598.984 373.417 599.526 373.089 599.985 372.662C602.44 370.692 603.868 367.756 605.229 364.924C606.295 362.882 607.137 360.732 607.743 358.51C608.041 357.246 608.182 355.953 608.487 354.69C609.901 348.55 614.714 343.54 615.777 337.319C615.864 336.891 615.884 336.453 615.837 336.019C615.697 335.452 615.481 334.908 615.197 334.398C614.939 333.823 614.749 333.219 614.632 332.599C616.12 333.135 617.697 333.96 618.165 335.461C618.357 336.296 618.316 337.168 618.046 337.981Z" fill="black"/>
<path opacity="0.1" d="M606.814 327.322C606.125 329.121 604.966 330.702 603.459 331.901C601.341 333.513 598.862 334.584 596.236 335.023C595.013 335.334 593.731 335.319 592.516 334.978C590.865 334.406 589.675 332.86 587.986 332.414C586.781 332.087 585.486 332.376 584.267 332.198C582.072 331.893 580.369 330.221 578.598 328.883C573.175 324.81 566.056 323.494 560.633 319.421C560.392 319.273 560.192 319.066 560.053 318.819C559.949 318.552 559.911 318.264 559.942 317.979C559.962 315.509 560.517 313.072 561.571 310.836C562.433 309.277 563.461 307.814 564.635 306.473C569.493 300.527 574.373 294.537 580.19 289.519C582.63 287.416 585.293 285.454 588.373 284.502C590.084 283.975 593.461 283.477 595.544 284.369C595.236 284.578 594.959 284.828 594.718 285.112C594.056 286.038 593.553 287.068 593.23 288.159C590.099 296.298 581.715 300.475 575.02 306.02L568.905 311.082C568.072 311.773 567.15 312.784 567.559 313.787C567.84 314.295 568.294 314.685 568.838 314.887C572.394 316.641 576.567 317.348 579.498 320.023C580.569 321.004 581.596 322.298 583.047 322.372C583.812 322.327 584.566 322.159 585.278 321.874C586.397 321.571 587.572 321.532 588.709 321.759C589.846 321.986 590.915 322.473 591.832 323.182C592.352 323.69 592.956 324.105 593.617 324.409C594.17 324.555 594.746 324.59 595.313 324.513C596.898 324.401 598.579 324.26 600 324.966C601.42 325.672 602.588 327.337 604.247 327.456C605.073 327.515 606.04 327.233 606.814 327.322Z" fill="black"/>
<path d="M538.399 226.445C536.985 227.352 535.483 228.378 534.903 229.954C534.426 231.239 534.65 232.711 534.077 233.96C533.504 235.208 532.217 236.078 531.934 237.416C531.734 238.39 532.128 239.415 531.934 240.389C531.766 240.895 531.629 241.412 531.525 241.935C531.451 243.043 532.403 243.942 533.333 244.559C535.313 245.845 537.567 246.65 539.914 246.908C542.262 247.166 544.637 246.871 546.849 246.045C548.835 245.302 550.628 244.091 552.533 243.139C554.39 242.071 556.514 241.555 558.655 241.653C559.882 241.786 561.057 242.232 562.285 242.396C562.891 242.516 563.517 242.486 564.11 242.31C564.702 242.134 565.242 241.816 565.684 241.385C566.063 240.862 566.318 240.26 566.428 239.624C567.462 235.543 566.994 231.217 566.012 227.114C565.03 223.011 563.542 219.065 562.493 214.984C561.749 211.959 561.176 208.86 559.934 205.998C558.692 203.136 556.602 200.475 553.678 199.383C553.448 199.27 553.186 199.236 552.934 199.286C552.747 199.365 552.581 199.487 552.451 199.643C550.138 202.092 548.396 205.021 547.348 208.22C546.18 211.781 545.86 215.556 544.789 219.132C544.328 220.618 543.732 222.61 542.557 223.747C541.382 224.884 539.73 225.591 538.399 226.445Z" fill="#3F3D56"/>
<path opacity="0.1" d="M566.451 239.601C566.326 240.24 566.059 240.842 565.669 241.363C565.228 241.796 564.688 242.113 564.095 242.288C563.502 242.463 562.875 242.49 562.27 242.366C561.05 242.218 559.875 241.764 558.647 241.623C556.506 241.524 554.382 242.04 552.525 243.109C550.621 244.061 548.806 245.243 546.834 246.008C543.951 247.101 540.8 247.28 537.811 246.521C536.224 246.122 534.715 245.459 533.348 244.559C532.411 243.949 531.466 243.072 531.54 241.935C531.644 241.414 531.781 240.9 531.949 240.397C532.143 239.423 531.756 238.397 531.949 237.423C532.232 236.086 533.526 235.194 534.092 233.96C534.657 232.726 534.441 231.247 534.91 229.961C535.49 228.378 537 227.36 538.414 226.445C539.827 225.531 541.508 224.832 542.639 223.725C542.785 223.553 542.917 223.369 543.033 223.175C543.849 221.918 544.447 220.534 544.804 219.079C545.897 215.497 546.195 211.729 547.355 208.161C548.408 204.964 550.153 202.038 552.466 199.591C552.589 199.431 552.754 199.308 552.942 199.234C553.193 199.183 553.454 199.214 553.686 199.323C556.602 200.423 558.692 203.084 559.942 205.946C561.191 208.807 561.719 211.892 562.501 214.925C563.542 219.005 565.037 222.967 566.019 227.062C567.001 231.158 567.485 235.513 566.451 239.601Z" fill="black"/>
<path opacity="0.1" d="M588.574 148.952C585.076 150.062 581.29 149.842 577.945 148.332C574.601 146.823 571.932 144.132 570.453 140.776C570.511 140.079 570.61 139.387 570.75 138.702C571.494 135.283 574.678 136.532 577.192 137.438C580.219 138.421 583.145 139.688 585.933 141.222C586.782 141.659 587.52 142.284 588.09 143.05C589.191 144.693 588.752 146.878 588.574 148.952Z" fill="black"/>
<path d="M584.081 148.907C592.297 148.907 598.958 142.252 598.958 134.042C598.958 125.832 592.297 119.176 584.081 119.176C575.864 119.176 569.203 125.832 569.203 134.042C569.203 142.252 575.864 148.907 584.081 148.907Z" fill="#BE6F72"/>
<path opacity="0.1" d="M624.451 245.131C624.451 246.365 622.777 246.759 621.535 246.692C617.072 246.432 612.705 245.206 608.286 245.577C602.7 246.083 597.567 249.167 591.966 249.45C589.808 249.561 587.614 249.241 585.486 249.635C582.734 250.148 580.279 251.821 577.475 252.058C575.042 252.267 572.64 251.352 570.207 251.449C568.506 251.55 566.848 252.022 565.35 252.831C565.512 251.258 566.217 249.789 567.343 248.677C569.121 246.93 571.65 247.383 574.105 246.967C576.554 246.439 578.945 245.675 581.246 244.685C587.701 242.144 594.497 240.573 601.413 240.025C608.359 239.473 615.337 240.576 621.773 243.243C622.709 243.622 623.592 244.122 624.399 244.73C624.439 244.86 624.457 244.995 624.451 245.131Z" fill="black"/>
<path d="M577.2 161.186L571.174 158.956L568.63 158.02C567.594 157.586 566.502 157.296 565.387 157.157C562.471 156.935 559.726 158.874 558.171 161.35C556.617 163.825 556.029 166.775 555.531 169.652C554.846 173.586 554.266 177.536 553.79 181.5C553.277 185.079 553.016 188.691 553.009 192.307C553.18 201.509 555.129 210.584 557.271 219.54C558.321 223.511 559.113 227.546 559.644 231.618C559.823 233.298 559.905 234.986 560.083 236.673C560.277 238.568 560.589 240.441 560.901 242.322L562.694 253.002C564.926 251.419 567.462 250.029 570.207 249.948C572.64 249.858 575.05 250.765 577.475 250.557C580.265 250.327 582.734 248.654 585.487 248.141C587.614 247.748 589.809 248.06 591.973 247.956C597.567 247.673 602.707 244.581 608.287 244.083C612.713 243.682 617.109 244.931 621.543 245.191C622.777 245.265 624.451 244.871 624.451 243.63C624.451 242.768 623.588 242.195 622.837 241.764C619.295 239.634 615.925 237.23 612.757 234.577C609.826 232.258 606.851 229.879 604.835 226.743C599.977 219.198 601.644 208.993 597.5 201.033C594.131 194.566 597.5 186.093 597.5 178.802C597.5 175.167 597.5 171.488 596.645 167.957C596.11 165.983 595.444 164.046 594.651 162.16L591.758 154.838C591.698 154.625 591.579 154.431 591.415 154.281C591.221 154.147 590.99 154.077 590.753 154.08C589.016 153.976 587.302 154.525 585.948 155.619C584.587 156.726 583.716 158.317 582.377 159.469C580.912 160.74 579.022 161.855 577.2 161.186Z" fill="#E3E8F4"/>
<path d="M586.922 156.964C587.398 154.928 587.912 152.809 589.273 151.219C590.634 149.628 593.119 148.788 594.874 149.925C596.868 151.219 596.95 154.207 598.653 155.872C600.141 157.299 602.373 157.41 604.396 157.596C608.034 157.927 611.608 158.768 615.011 160.093C615.675 160.299 616.28 160.661 616.774 161.149C617.704 162.204 617.518 163.825 617.979 165.14C618.612 166.835 620.36 167.913 621.037 169.6C621.78 171.473 621.037 173.569 620.412 175.494C619.288 178.95 618.582 182.54 617.488 186.011C616.395 189.482 614.84 192.901 612.281 195.518C611.15 196.677 609.469 197.748 607.981 197.056L607.409 201.181C607.241 202.053 607.241 202.948 607.409 203.82C607.495 204.256 607.703 204.659 608.008 204.983C608.313 205.306 608.704 205.537 609.134 205.649C609.246 206.288 609.923 206.592 610.473 206.942C610.88 207.219 611.227 207.575 611.495 207.988C611.763 208.4 611.946 208.862 612.034 209.346C612.122 209.83 612.112 210.327 612.007 210.807C611.901 211.287 611.701 211.742 611.418 212.145C610.95 212.777 610.258 213.275 610.035 214.025C609.7 215.11 610.496 216.255 611.463 216.85C612.43 217.444 613.568 217.719 614.55 218.292C616.588 219.466 617.682 221.778 618.381 224.022C618.902 225.717 619.333 227.553 620.613 228.787C621.104 229.255 621.691 229.612 622.16 230.102C622.971 231.06 623.44 232.26 623.491 233.514C623.695 235.067 623.353 236.643 622.524 237.973C621.037 240.099 618.262 240.731 615.829 241.69C611.879 243.31 608.629 246.209 605.147 248.677C603.729 249.818 602.059 250.603 600.275 250.966C597.865 251.285 595.492 250.223 593.067 250.126C591.616 250.139 590.172 250.329 588.767 250.691L584.304 251.657C584.542 248.201 582.637 244.737 581.574 241.445C579.565 235.246 579.193 228.616 579.669 222.119C580.145 215.623 581.47 209.216 582.779 202.839C583.694 198.379 583.605 193.719 585.01 189.386C586.327 185.216 588.209 181.21 588.901 176.869C590.032 169.845 585.33 163.892 586.922 156.964Z" fill="#3F3D56"/>
<path d="M620.761 170.707C621.172 171.463 621.46 172.278 621.617 173.123C621.961 174.432 622.605 175.644 623.499 176.661C624.247 177.321 624.912 178.069 625.478 178.891C626.162 180.184 625.902 181.76 626.221 183.172C626.593 184.711 627.672 186.048 627.828 187.632C627.833 188.085 627.875 188.538 627.955 188.984C628.438 190.783 631.086 191.214 631.674 193.013C632.068 194.18 631.391 195.451 631.518 196.677C631.61 197.057 631.633 197.449 631.585 197.837C631.417 198.275 631.121 198.653 630.737 198.922C628.275 201.272 626.571 204.302 625.842 207.626C625.125 210.931 624.749 214.3 624.719 217.682L621.81 213.839C621.502 213.373 621.108 212.97 620.65 212.65C620.278 212.427 619.846 212.316 619.467 212.093C618.366 211.468 617.935 210.145 617.511 208.956C616.333 205.664 614.569 202.612 612.303 199.948C611.121 198.558 609.744 197.16 609.484 195.354C609.406 194.525 609.451 193.688 609.618 192.872C610.362 188.003 611.158 183.016 613.531 178.698C614.639 176.676 616.075 174.847 617.139 172.796C617.853 171.436 618.857 167.898 620.761 170.707Z" fill="#3F3D56"/>
<path d="M547.377 175.383C547.391 176.008 547.231 176.626 546.916 177.166C546.632 177.496 546.261 177.739 545.846 177.871C545.431 178.002 544.988 178.015 544.566 177.91C543.719 177.697 542.92 177.324 542.215 176.81C540.142 175.501 538.069 174.191 535.996 172.878C534.839 172.181 533.723 171.416 532.656 170.588C531.024 169.212 529.545 167.665 528.245 165.973C524.63 161.513 521.431 156.674 517.406 152.594C516.313 151.479 515.175 150.409 514.118 149.242C512.675 147.555 511.348 145.772 510.146 143.905C508.986 142.188 507.781 140.285 507.981 138.234C508.1 137.074 508.658 136.004 508.822 134.852C508.986 133.7 508.547 132.295 507.431 131.983C507.299 131.95 507.165 131.927 507.029 131.916C506.809 131.893 506.592 131.845 506.382 131.775C505.348 131.344 505.504 129.746 506.248 128.906C506.992 128.066 508.093 127.598 508.77 126.676C509.085 126.129 509.438 125.605 509.826 125.108C510.324 124.681 510.919 124.382 511.56 124.238C515.85 122.974 520.389 122.803 524.763 123.74C525.507 123.903 526.355 124.201 526.578 124.922C526.668 125.273 526.668 125.641 526.578 125.992C526.25 127.458 526.061 128.951 526.013 130.452C526.012 130.765 526.029 131.077 526.065 131.388C526.415 134.54 528.461 137.208 530.454 139.668C532.82 142.597 535.222 145.503 537.633 148.402C538.936 150.082 540.393 151.637 541.984 153.047C543.472 154.281 545.399 155.277 546.559 156.86C547.504 158.139 547.199 159.885 547.303 161.424C547.649 166.07 547.674 170.733 547.377 175.383Z" fill="#3F3D56"/>
<path d="M641.85 206.392C642.585 205.678 643.248 204.894 643.829 204.05C644.454 203.005 644.954 201.89 645.317 200.728L649.631 188.501C650.316 186.569 651 184.629 651.863 182.748C652.756 180.719 653.812 178.764 654.786 176.802C657.293 171.638 659.231 166.218 660.566 160.636C660.801 159.869 660.88 159.063 660.797 158.265C660.589 156.979 659.614 155.976 658.684 155.061C657.749 154.052 656.684 153.172 655.515 152.445C654.929 152.081 654.276 151.836 653.594 151.727C652.912 151.617 652.215 151.644 651.543 151.806C649.639 152.363 648.441 154.311 648.002 156.266C647.563 158.22 647.727 160.22 647.541 162.212C647.273 165.066 646.291 167.823 646.053 170.685C645.927 172.343 646.053 174.015 645.852 175.665C645.486 177.832 644.73 179.914 643.621 181.812C641.204 186.332 637.938 190.344 634.002 193.63C632.924 194.425 631.954 195.357 631.116 196.402C630.417 197.448 629.943 198.627 629.725 199.866C629.231 201.752 629.445 203.754 630.328 205.492C631.54 207.559 633.869 208.466 636.093 208.926C639.098 209.551 639.79 208.525 641.85 206.392Z" fill="#BE6F72"/>
<path d="M584.17 112.502C584.81 111.299 585.791 110.312 586.99 109.663C588.188 109.014 589.552 108.732 590.909 108.852C592.277 109.094 593.55 109.714 594.583 110.641C595.616 111.569 596.369 112.767 596.756 114.1C597.106 115.207 597.247 116.434 597.857 117.385C598.78 118.819 600.491 119.236 601.77 120.276C602.534 120.985 603.149 121.84 603.578 122.789C604.007 123.739 604.242 124.765 604.27 125.806C604.341 127.934 604.005 130.055 603.28 132.057C602.973 132.911 602.724 133.785 602.536 134.673C602.388 135.536 602.373 136.413 602.239 137.275C602.074 138.393 601.687 139.467 601.101 140.433C600.514 141.399 599.74 142.239 598.824 142.901C598.564 143.114 598.238 143.232 597.902 143.236C597.322 143.169 596.965 142.493 596.749 141.883C595.566 138.472 595.849 134.302 593.669 131.581C592.678 130.484 591.48 129.593 590.143 128.958C589.598 128.607 588.985 128.376 588.343 128.281C587.4 128.332 586.493 128.663 585.739 129.233C584.169 130.285 582.427 131.055 580.592 131.507C579.676 131.724 578.723 131.734 577.803 131.536C576.883 131.338 576.019 130.937 575.273 130.362C574.247 129.515 573.495 128.244 572.357 127.583C571.219 126.921 570.029 126.958 568.906 126.505C568.19 126.201 567.553 125.737 567.043 125.15C566.534 124.562 566.165 123.866 565.966 123.115C565.767 122.364 565.741 121.577 565.892 120.815C566.043 120.052 566.367 119.334 566.838 118.715C567.581 117.823 568.682 117.318 569.344 116.33C570.2 115.051 570.125 113.297 570.535 111.766C570.777 110.797 571.247 109.9 571.905 109.149C572.564 108.398 573.392 107.815 574.321 107.447C575.222 107.142 576.189 107.083 577.121 107.278C578.052 107.473 578.914 107.914 579.617 108.555C580.361 109.224 580.956 110.086 581.685 110.785C582.405 111.473 583.286 111.97 584.248 112.23C585.21 112.489 586.221 112.504 587.19 112.271" fill="#3F3D56"/>
<path opacity="0.1" d="M596.399 221.904C595.966 222.289 595.659 222.796 595.519 223.358C595.378 223.92 595.41 224.512 595.611 225.055C595.774 225.405 603.451 223.926 604.262 223.814C606.285 223.524 609.834 223.665 611.195 221.815C613.62 218.537 606.107 219.265 604.731 219.384C602.112 219.607 598.393 219.964 596.399 221.904Z" fill="black"/>
<path d="M526.564 126.022C526.236 127.487 526.046 128.98 525.998 130.481C523.767 130.935 521.446 130.192 519.304 129.448L513.152 127.352C512.777 127.113 512.326 127.026 511.89 127.107C511.453 127.189 511.064 127.433 510.801 127.791C509.812 128.817 508.45 130.764 507.082 131.916C506.861 131.893 506.644 131.845 506.434 131.775C505.4 131.344 505.557 129.746 506.3 128.906C507.044 128.066 508.145 127.598 508.822 126.676C509.137 126.129 509.49 125.605 509.879 125.108C510.377 124.681 510.972 124.382 511.612 124.238C515.903 122.974 520.442 122.803 524.816 123.74C525.56 123.903 526.408 124.201 526.631 124.922C526.703 125.288 526.68 125.667 526.564 126.022Z" fill="#3F3D56"/>
<path opacity="0.1" d="M526.564 126.022C526.236 127.487 526.046 128.98 525.998 130.481C523.767 130.935 521.446 130.192 519.304 129.448L513.152 127.352C512.777 127.113 512.326 127.026 511.89 127.107C511.453 127.189 511.064 127.433 510.801 127.791C509.812 128.817 508.45 130.764 507.082 131.916C506.861 131.893 506.644 131.845 506.434 131.775C505.4 131.344 505.557 129.746 506.3 128.906C507.044 128.066 508.145 127.598 508.822 126.676C509.137 126.129 509.49 125.605 509.879 125.108C510.377 124.681 510.972 124.382 511.612 124.238C515.903 122.974 520.442 122.803 524.816 123.74C525.56 123.903 526.408 124.201 526.631 124.922C526.703 125.288 526.68 125.667 526.564 126.022Z" fill="black"/>
<path opacity="0.1" d="M582.838 267.132C583.91 267.489 585.07 268.009 585.435 269.079L576.82 266.894L572.357 265.757C571.569 265.556 568.742 265.326 568.221 264.709C567.477 263.802 570.118 264.427 570.594 264.493C572.037 264.709 573.48 264.932 574.916 265.192C577.624 265.675 580.227 266.471 582.838 267.132Z" fill="black"/>
<path opacity="0.1" d="M586.178 274.751C585.434 274.253 583.299 274.312 582.384 274.097C581.045 273.777 579.729 273.353 578.412 272.944C575.742 272.075 573.093 271.086 570.348 270.447C569.843 270.336 568.117 270.306 568.199 269.667C568.28 269.027 569.924 268.804 570.334 268.775C572.766 268.596 575.801 269.733 578.062 270.544C580.945 271.575 583.674 272.99 586.178 274.751Z" fill="black"/>
<path opacity="0.1" d="M580.718 260.339C577.988 259.595 575.511 257.901 572.699 257.574C571.966 257.601 571.246 257.381 570.654 256.949C570.323 256.625 570.093 256.212 569.991 255.76C571.873 255.663 574.06 256.459 575.771 257.209C576.713 257.613 577.619 258.095 578.479 258.651C579.104 259.03 580.041 260.123 580.718 260.339Z" fill="black"/>
<path d="M632.76 193.786C632.299 196.876 632.966 200.029 634.641 202.667C636.316 205.306 638.886 207.253 641.88 208.153C641.516 209.915 639.693 210.889 638.406 212.145C636.591 213.906 635.654 216.545 633.511 217.883C631.124 219.369 628.051 218.79 625.329 218.165C625.081 218.138 624.853 218.018 624.689 217.831C624.633 217.742 624.593 217.644 624.57 217.541C623.67 214.248 623.082 210.733 624.005 207.432C624.748 204.623 626.534 202.23 627.962 199.747C629.39 197.264 629.524 194.604 632.76 193.786Z" fill="#3F3D56"/>
<path d="M566.25 151.167C563.37 151.376 560.574 152.227 558.067 153.657C556.401 154.608 554.69 155.886 552.785 155.656C551.662 155.53 550.554 154.913 549.46 155.21C548.844 155.458 548.27 155.799 547.757 156.221C547.497 156.428 547.187 156.564 546.859 156.616C546.53 156.668 546.194 156.635 545.882 156.518L545.138 166.805C544.856 170.715 544.58 174.706 545.518 178.519C546.001 180.466 547.065 182.235 547.184 184.213C547.303 186.19 547.125 188.219 547.266 190.218C547.4 192.069 547.809 193.89 547.913 195.741C548.121 199.234 547.258 202.698 546.425 206.094C545.168 211.104 544.409 216.225 541.962 220.759C541.278 222.015 540.474 223.294 540.474 224.721C540.474 224.899 540.474 225.07 540.519 225.241C539.775 225.65 539.083 226.037 538.451 226.438C537.037 227.352 535.527 228.37 534.947 229.954C534.479 231.239 534.694 232.711 534.129 233.952C533.564 235.194 532.269 236.078 531.987 237.416C531.786 238.39 532.173 239.415 531.987 240.389C531.818 240.893 531.681 241.407 531.577 241.928C531.503 243.043 532.448 243.942 533.385 244.551C534.752 245.452 536.261 246.115 537.848 246.514L542.289 228.898C546.338 221.418 549.707 213.59 552.354 205.507C553.111 202.865 554.084 200.29 555.263 197.807C556.105 196.402 556.85 194.942 557.494 193.437C558.171 191.564 558.238 189.534 558.565 187.557C558.954 185.25 559.539 182.979 560.314 180.771C561.117 178.385 562.047 176.007 562.21 173.502C562.456 169.919 561.154 166.136 562.538 162.821C563.125 161.58 563.889 160.431 564.807 159.41C566.726 157.061 568.474 154.601 570.393 152.252C569.396 151.189 567.737 151.077 566.25 151.167Z" fill="#3F3D56"/>
<g opacity="0.1">
<path opacity="0.1" d="M587.212 110.056L586.283 110.123L586.178 110.198C586.527 110.183 586.873 110.136 587.212 110.056Z" fill="black"/>
<path opacity="0.1" d="M604.232 125.487C604.077 126.964 603.758 128.42 603.28 129.827C602.973 130.681 602.724 131.556 602.536 132.444C602.388 133.306 602.373 134.183 602.239 135.045C602.074 136.163 601.687 137.237 601.101 138.203C600.514 139.169 599.74 140.009 598.824 140.672C598.564 140.884 598.238 141.002 597.902 141.006C597.322 140.939 596.965 140.263 596.749 139.653C595.566 136.242 595.849 132.072 593.669 129.352C592.678 128.254 591.48 127.363 590.143 126.728C589.598 126.377 588.985 126.146 588.343 126.052C587.4 126.102 586.493 126.434 585.74 127.003C584.169 128.055 582.427 128.825 580.592 129.277C579.676 129.494 578.723 129.504 577.803 129.306C576.883 129.108 576.019 128.707 575.273 128.133C574.247 127.285 573.495 126.014 572.357 125.353C571.219 124.691 570.029 124.729 568.906 124.275C568.204 123.976 567.579 123.522 567.076 122.948C566.574 122.374 566.208 121.695 566.004 120.96C565.978 120.867 565.958 120.773 565.945 120.678C565.759 121.507 565.779 122.37 566.004 123.19C566.208 123.925 566.574 124.604 567.076 125.178C567.579 125.752 568.204 126.205 568.906 126.505C570.029 126.958 571.293 126.966 572.357 127.583C573.421 128.2 574.247 129.515 575.273 130.363C576.019 130.937 576.883 131.338 577.803 131.536C578.723 131.734 579.676 131.724 580.592 131.507C582.427 131.055 584.169 130.285 585.74 129.233C586.493 128.663 587.4 128.332 588.343 128.281C588.985 128.376 589.598 128.607 590.143 128.958C591.463 129.605 592.643 130.504 593.617 131.604C595.797 134.324 595.514 138.494 596.697 141.906C596.913 142.522 597.27 143.191 597.85 143.258C598.207 143.26 598.553 143.133 598.824 142.902C599.744 142.237 600.521 141.394 601.109 140.424C601.696 139.453 602.083 138.375 602.246 137.253C602.38 136.39 602.395 135.513 602.544 134.651C602.732 133.763 602.98 132.889 603.288 132.035C604.012 130.033 604.348 127.912 604.277 125.784C604.262 125.695 604.247 125.591 604.232 125.487Z" fill="black"/>
</g>
<path d="M557.167 185.127L556.661 191.913C556.587 192.835 554.824 214.776 541.821 240.419C530.662 262.412 508.949 291.058 467.953 307.157C464.755 308.421 461.434 309.6 457.993 310.695L454.154 298.654C463.791 295.624 473.073 291.567 481.842 286.554C502.737 274.498 518.984 257.291 530.313 235.149C536.324 223.36 540.608 210.769 543.033 197.762H496.392V185.127H557.167Z" fill="#F97800"/>
<path opacity="0.1" d="M462.932 307.165C503.92 291.065 525.641 262.427 536.792 240.434C549.795 214.791 551.566 192.864 551.633 191.928L552.138 185.142H557.346L556.84 191.928C556.773 192.849 555.002 214.791 541.999 240.434C530.841 262.427 509.127 291.065 468.139 307.165C464.941 308.428 461.618 309.61 458.171 310.71L457.666 309.127C459.461 308.488 461.216 307.834 462.932 307.165Z" fill="white"/>
<path d="M380.867 298.654L377.029 310.695C373.582 309.595 370.259 308.413 367.061 307.15C326.073 291.05 304.352 262.412 293.201 240.419C280.198 214.776 278.427 192.849 278.36 191.913L277.854 185.127H338.6V197.762H291.951C294.389 210.771 298.686 223.362 304.709 235.149C316.038 257.291 332.277 274.498 353.172 286.546C361.942 291.565 371.227 295.624 380.867 298.654Z" fill="#F97800"/>
<path opacity="0.1" d="M372.075 307.165C331.087 291.065 309.365 262.427 298.215 240.434C285.212 214.791 283.441 192.864 283.374 191.928L282.868 185.142H277.661L278.167 191.928C278.234 192.849 280.004 214.791 293.007 240.434C304.166 262.427 325.88 291.065 366.867 307.165C370.066 308.428 373.389 309.61 376.835 310.71L377.341 309.127C375.551 308.488 373.795 307.834 372.075 307.165Z" fill="white"/>
<path d="M487.681 415.051V483.186H347.333V415.051L351.796 409.104C397.277 392.975 406.494 350.914 408.331 334.272C408.605 331.972 408.761 329.66 408.8 327.345H426.155C426.193 329.66 426.35 331.972 426.623 334.272C428.49 350.914 437.707 392.99 483.158 409.104L487.681 415.051Z" fill="#F97800"/>
<path opacity="0.1" d="M487.681 415.051H347.333V423.598H487.681V415.051Z" fill="black"/>
<path opacity="0.1" d="M359.235 409.104C404.716 392.975 413.933 350.914 415.77 334.272C416.044 331.972 416.2 329.66 416.239 327.345H408.8C408.761 329.66 408.605 331.972 408.331 334.272C406.464 350.914 397.247 392.99 351.796 409.104L347.333 415.051V483.186H354.772V415.051L359.235 409.104Z" fill="white"/>
<path opacity="0.1" d="M326.013 185.127H338.6V197.762H327.129C326.678 193.6 326.306 189.388 326.013 185.127Z" fill="black"/>
<path opacity="0.1" d="M380.867 298.654L377.029 310.695C373.582 309.595 370.259 308.413 367.061 307.15C361.799 300.729 357.149 293.832 353.172 286.546C361.942 291.565 371.227 295.625 380.867 298.654Z" fill="black"/>
<path opacity="0.1" d="M454.147 298.654C463.783 295.624 473.066 291.567 481.834 286.554C477.855 293.84 473.206 300.74 467.946 307.165C464.747 308.428 461.427 309.608 457.985 310.703L454.147 298.654Z" fill="black"/>
<path opacity="0.1" d="M508.993 185.127C508.701 189.388 508.329 193.6 507.877 197.762H496.414V185.127H508.993Z" fill="black"/>
<path opacity="0.1" d="M426.653 334.272C420.612 335.441 414.402 335.441 408.361 334.272C408.635 331.972 408.791 329.66 408.83 327.345H426.184C426.223 329.66 426.38 331.972 426.653 334.272Z" fill="black"/>
<path d="M327.501 164.196C327.821 257.893 367.99 333.662 417.511 333.662C467.031 333.662 507.193 257.893 507.52 164.196H327.501Z" fill="#F97800"/>
<path opacity="0.1" d="M343.494 164.196H327.501C327.821 257.893 367.99 333.662 417.511 333.662C420.19 333.658 422.865 333.431 425.507 332.986C379.729 325.345 343.799 252.794 343.494 164.196Z" fill="white"/>
<path d="M465.238 441.132H369.776V465.66H465.238V441.132Z" fill="#3F3D56"/>
<path opacity="0.1" d="M374.239 444.477H465.238V441.132H369.776V465.66H374.239V444.477Z" fill="white"/>
<path d="M276.59 254.66C274.872 254.088 264.755 246.09 263.989 242.47C263.222 238.851 269.337 205.128 269.337 205.128C269.337 205.128 268.772 205.128 267.849 205.017V204.474L269.107 160.175C269.107 160.175 274.262 130.444 264.524 132.176C254.787 133.908 260.894 160.175 260.894 160.175C260.894 160.175 259.786 173.509 259.005 177.508C258.261 181.366 254.854 197.079 257.175 201.962C257.26 202.135 257.354 202.304 257.457 202.467C257.457 202.467 257.844 219.228 253.641 221.517C249.632 223.695 247.965 234.658 247.824 235.64L247.608 235.55C246.411 234.802 245.36 233.842 244.506 232.719C244.417 232.607 244.35 232.488 244.268 232.369C247.005 229.293 248.48 225.298 248.399 221.183C248.318 217.067 246.686 213.134 243.829 210.168C242.501 208.789 240.943 207.652 239.225 206.808C239.175 205.388 238.838 203.992 238.235 202.705C236.301 198.573 225.59 193.169 217.98 193.043C214.468 192.939 211.59 193.935 210.541 196.677C210.005 198.067 210.169 199.65 209.946 201.092C209.499 204.065 207.588 206.392 205.133 208.243C204.142 207.137 203.07 206.106 201.927 205.158C199.442 203.255 194.488 196.982 194.488 196.982C194.488 196.982 179.023 180.979 177.877 176.594C176.731 172.209 161.281 145.875 157.844 150.461C154.408 155.047 169.679 175.033 169.679 175.033C169.679 175.033 172.581 182.295 174.812 184.748C177.044 187.201 194.153 212.026 194.153 212.026L194.971 213.72C191.356 215.623 188.053 218.046 186.885 221.822C185.174 227.382 188.916 232.971 191.505 238.174C196.548 248.327 197.27 261.275 190.761 270.551C184.929 278.742 174.812 282.637 165.343 286.041C169.916 289.629 175.597 291.514 181.41 291.37C179.223 297.703 171.472 299.799 164.866 300.973C168.333 304.303 173.295 305.515 178.055 306.25C180.387 306.647 182.75 306.834 185.115 306.808H185.695L186.275 306.763C187.082 306.71 187.884 306.608 188.678 306.459C192.115 305.76 195.455 303.887 197.21 300.854C198.698 298.26 199.219 294.722 201.919 293.422C202.622 293.104 203.38 292.925 204.151 292.894H204.069C204.575 292.894 205.096 292.894 205.601 292.894L216.856 293.005C217.325 293.005 217.809 293.005 218.292 293.005C221.468 292.931 224.861 292.381 226.475 289.757C227.139 288.483 227.488 287.069 227.494 285.632C227.732 282.072 227.494 278.407 227.591 274.817C228.55 281.351 229.554 291.534 227.167 295.295C225.227 298.144 222.875 300.692 220.189 302.854C219.513 303.421 218.895 304.053 218.344 304.742C217.98 305.002 217.764 305.143 217.764 305.143L217.533 305.834C216.685 307.119 216.071 308.543 215.718 310.041C215.588 310.426 215.54 310.833 215.577 311.238C215.837 311.766 213.717 313.943 214.335 314.858C209.038 321.064 208.034 330.466 208.034 330.466L198.363 345.138C193.394 358.183 185.956 359.521 185.956 359.521C185.956 359.521 168.482 347.807 168.006 347.234C167.53 346.662 160.85 343.801 160.85 343.801C160.062 342.42 158.86 341.323 157.413 340.664C155.122 339.713 154.928 336.204 154.928 336.204C154.646 327.917 149.773 327.285 149.773 327.285C145.845 326.951 142.848 327.649 140.542 328.928L139.842 328.98C136.465 329.255 132.404 329.559 127.94 329.857C115.525 330.674 112.572 338.709 112.572 338.709C112.572 338.709 111.047 340.426 113.048 342.284C115.049 344.142 127.858 342.284 128.401 342.24C127.425 342.345 126.438 342.277 125.485 342.039C127.501 341.965 130.276 341.89 132.642 341.89H133.214C133.065 343.143 132.993 344.404 132.999 345.666C132.999 348.045 139.582 349.568 139.582 349.568L159.63 367.407C159.63 367.407 172.231 373.033 180.25 381.128C188.269 389.222 195.358 382.235 195.358 382.235C203.846 380.139 228.267 350.639 228.29 350.609C228.29 351.471 228.803 380.161 229.778 385.922C229.816 386.214 229.889 386.501 229.993 386.777C231.139 389.252 229.606 396.015 228.944 398.87C228.522 401.258 228.36 403.686 228.461 406.109C228.461 406.109 219.304 441.043 220.062 444.113C220.821 447.182 215.101 461.446 215.101 461.446V473.338L216.098 473.286C215.968 473.478 215.849 473.676 215.741 473.881L215.674 474.007C215.674 474.007 221.781 475.337 225.887 474.958C229.993 474.579 237.045 478.117 237.045 478.117C237.045 478.117 239.433 479.247 246.783 479.723C254.132 480.198 254.132 476.482 254.132 476.482C253.292 471.42 241.68 469.726 241.323 469.674C240.385 469.087 239.508 468.447 238.786 467.897L238.637 467.778C238.686 467.667 238.728 467.553 238.764 467.436C240.006 462.382 233.132 460.19 233.132 460.19V458.956C237.596 456.666 238.481 440.954 238.481 440.954C238.481 440.954 245.176 421.525 246.113 418.284C247.05 415.043 246.113 410.19 246.113 410.19L246.783 405.998C246.783 405.998 248.218 403.143 248.218 402.571C248.404 401.121 248.963 399.743 249.84 398.572C250.889 397.331 248.694 394.38 248.694 394.38L250.606 389.43V383.997L255.07 364.285C255.07 364.285 259.749 341.325 258.127 333.811C256.505 326.296 260.039 322.476 260.039 322.476C259.72 322.643 259.392 322.792 259.057 322.922C259.503 321.89 259.888 320.833 260.21 319.756L270.252 320.997V321.146H273.875C273.875 321.146 272.729 307.023 272.729 301.33C272.729 295.637 276.59 275.204 276.59 275.204C276.59 275.204 278.308 255.232 276.59 254.66ZM232.009 238.174C232.009 238.732 231.957 239.311 231.92 239.906L231.719 240.211L231.347 239.899L230.893 240.605L230.759 240.672C229.778 240.166 229.272 237.275 228.565 237.899L228.468 237.981C228.312 237.803 228.156 237.75 227.992 237.899L227.843 238.025C227.843 237.81 227.843 237.587 227.843 237.364C229.204 237.714 230.604 237.891 232.009 237.892C232.017 237.988 232.009 238.085 232.009 238.174ZM265.409 303.939H265.625L265.268 304.875C265.313 304.563 265.357 304.258 265.409 303.939ZM228.744 472.491L227.375 472.149L228.119 472.022L228.811 472.476L228.892 472.535L228.744 472.491ZM242.729 470.491C242.275 470.253 241.814 469.978 241.367 469.696C241.516 469.778 242.104 470.082 242.729 470.491Z" fill="url(#paint1_linear)"/>
<path d="M270.349 289.898L261.34 313.356H263.527L255.054 320.105L270.349 322.008V289.898Z" fill="#F86D70"/>
<path opacity="0.1" d="M270.349 289.898L261.34 313.356L259.071 312.747L255.054 320.105L270.349 322.008V289.898Z" fill="black"/>
<path d="M256.222 304.905H270.349L275.534 262.278H256.222V304.905Z" fill="#F86D70"/>
<path opacity="0.1" d="M256.222 304.905H270.349L275.534 262.278H256.222V304.905Z" fill="black"/>
<path d="M228.632 272.372L231.682 271.859L238.689 270.67C238.689 270.67 259.733 265.928 264.078 265.541C266.709 265.194 269.276 264.463 271.695 263.371C272.833 262.881 273.555 262.509 273.555 262.509L265.975 248.677L254.214 239.965C254.214 239.965 246.775 238.382 243.628 234.056C242.926 233.126 242.469 232.034 242.299 230.88C242.128 229.727 242.251 228.55 242.654 227.456C244.573 221.51 231.191 233.142 231.191 233.142C231.191 233.142 231.317 235.929 231.191 239.482C231.191 240.181 231.124 240.909 231.072 241.653C231.072 242.143 231.005 242.634 230.953 243.139C230.625 246.67 229.956 250.304 228.632 252.475C225.396 257.782 228.632 272.372 228.632 272.372Z" fill="#FBBEBE"/>
<path opacity="0.1" d="M231.191 239.78H231.488C232.024 239.78 232.456 238.642 232.976 238.59C237.164 238.189 240.988 237.312 243.643 234.346C242.943 233.416 242.487 232.325 242.317 231.174C242.147 230.022 242.268 228.846 242.669 227.753C244.588 221.807 231.206 233.432 231.206 233.432C231.206 233.432 231.347 236.227 231.191 239.78Z" fill="black"/>
<path d="M214.9 222.922C214.899 225.062 215.32 227.181 216.139 229.158C216.958 231.135 218.159 232.932 219.674 234.445C221.188 235.958 222.986 237.158 224.965 237.977C226.943 238.795 229.064 239.216 231.206 239.215C231.741 239.215 232.27 239.215 232.798 239.14C235.94 238.832 238.924 237.62 241.39 235.65C243.855 233.68 245.696 231.037 246.687 228.042C247.678 225.047 247.778 221.829 246.975 218.778C246.171 215.728 244.498 212.976 242.16 210.857C239.821 208.738 236.917 207.343 233.801 206.841C230.684 206.339 227.488 206.752 224.602 208.029C221.715 209.307 219.262 211.394 217.54 214.038C215.818 216.681 214.901 219.768 214.9 222.922Z" fill="#FBBEBE"/>
<path d="M209.894 198.194C209.358 199.576 209.522 201.122 209.306 202.586C208.51 207.871 203.132 211.037 198.267 213.252C193.402 215.467 187.912 218.091 186.365 223.197C184.669 228.72 188.373 234.257 190.947 239.438C195.961 249.531 196.675 262.405 190.203 271.636C184.453 279.812 174.433 283.692 165 287.096C169.54 290.665 175.182 292.541 180.957 292.403C178.792 298.699 171.093 300.787 164.532 301.947C167.976 305.262 172.908 306.466 177.631 307.194C181.076 307.73 184.609 308.079 188.046 307.388C191.483 306.696 194.741 304.831 196.511 301.813C197.999 299.234 198.505 295.718 201.19 294.418C202.402 293.941 203.708 293.75 205.006 293.86L216.165 293.979C219.638 293.979 223.752 293.711 225.545 290.746C226.206 289.479 226.553 288.072 226.557 286.643C227.04 279.329 225.634 271.599 228.647 264.925C229.554 262.91 223.73 259.722 224.34 257.588C226.438 250.252 226.966 244.477 226.943 236.844C226.943 230.935 230.789 225.843 233.966 220.856C237.142 215.869 239.798 209.573 237.291 204.221C234.464 198.253 213.234 189.579 209.894 198.194Z" fill="#3F3D56"/>
<path d="M224.749 470.35L227.59 472.231L228.029 472.52L228.111 472.572L231.481 474.802L239.351 476.125L246.269 475.65C246.269 475.65 248.263 471.487 245.131 471.584C244.128 471.533 243.15 471.25 242.275 470.759L241.843 470.543C241.389 470.306 240.936 470.038 240.489 469.755C239.559 469.168 238.682 468.529 237.975 467.986C236.934 467.184 236.242 466.574 236.242 466.574L224.749 470.35Z" fill="#FBBEBE"/>
<path opacity="0.1" d="M227.628 472.231L228.067 472.52L228.148 472.572L231.518 474.802L239.388 476.125L246.307 475.65C246.307 475.65 248.3 471.487 245.168 471.584C244.165 471.533 243.188 471.25 242.312 470.759C242.862 471.19 243.324 471.658 243.368 472.052C243.495 473.115 238.25 475.025 238.25 475.025L230.856 473.07C230.856 473.07 229.599 472.714 227.881 472.268L227.717 472.223L227.628 472.231Z" fill="black"/>
<path d="M214.982 474.044C214.982 474.044 221.044 475.367 225.121 474.988C229.197 474.609 236.22 478.117 236.22 478.117C236.22 478.117 238.592 479.232 245.89 479.708C253.187 480.184 253.187 476.482 253.187 476.482C252.354 471.45 240.824 469.793 240.467 469.718C240.608 469.793 241.211 470.097 241.821 470.506C242.639 471.041 243.524 471.74 243.591 472.305C243.718 473.36 238.473 475.278 238.473 475.278L231.079 473.331C231.079 473.331 229.822 472.966 228.104 472.52H227.94C225.392 471.827 222.803 471.293 220.189 470.922C217.005 470.581 215.376 473.286 215.041 473.896C215.017 473.943 214.997 473.993 214.982 474.044Z" fill="#3F3D56"/>
<path d="M119.423 340.382L122.644 342.849C122.644 342.849 123.581 342.805 124.979 342.76H125.426C127.427 342.686 130.187 342.611 132.53 342.611C134.045 342.543 135.562 342.628 137.06 342.864C138.667 343.429 141.523 333.677 141.523 333.677L138.295 332.934L137.224 332.681L136.48 332.503L133.854 331.886L125.894 332.793L120.3 336.39L119.423 340.382Z" fill="#FBBEBE"/>
<path opacity="0.1" d="M119.423 340.382L122.644 342.849C122.644 342.849 123.581 342.805 124.979 342.76C124.338 342.513 123.809 342.039 123.492 341.43C121.409 335.654 131.741 333.187 131.741 333.187L136.554 332.978L137.491 332.934H138.235L137.164 332.681L136.42 332.503L133.794 331.886L125.835 332.793L120.241 336.39L119.423 340.382Z" fill="black"/>
<path d="M113.07 342.99C115.019 344.789 127.784 342.99 128.319 342.946C127.351 343.055 126.37 342.987 125.426 342.745C124.958 342.661 124.515 342.475 124.129 342.198C123.743 341.922 123.424 341.563 123.194 341.147C121.111 335.364 131.444 332.904 131.444 332.904L136.257 332.696L137.187 332.651L148.888 332.146L149.453 328.928C149.453 328.928 145.652 329.285 139.686 329.76C136.331 330.035 132.247 330.34 127.836 330.63C115.51 331.447 112.579 339.438 112.579 339.438C112.579 339.438 111.084 341.147 113.07 342.99Z" fill="#3F3D56"/>
<path d="M256.23 203.478C256.309 203.655 256.404 203.824 256.513 203.984L259.354 208.146L266.748 208.889L266.83 205.961L268.073 161.9C268.073 161.9 273.19 132.347 263.52 134.049C253.85 135.751 259.92 161.9 259.92 161.9C259.92 161.9 258.819 175.16 258.045 179.143C257.294 182.994 253.924 198.647 256.23 203.478Z" fill="#FBBEBE"/>
<path d="M239.634 312.918L241.739 316.515L246.448 324.565C246.448 324.565 254.987 327.694 257.175 325.308C258.372 324.007 259.667 319.466 260.574 315.645C261.318 312.553 261.816 309.945 261.816 309.945L239.634 312.918Z" fill="#FBBEBE"/>
<path opacity="0.1" d="M239.634 312.918L241.739 316.515C241.871 316.402 241.991 316.275 242.096 316.136C244.476 313.103 254.958 315.489 260.574 315.683C261.318 312.591 261.816 309.982 261.816 309.982L239.634 312.918Z" fill="black"/>
<path opacity="0.1" d="M132.53 342.596C134.045 342.528 135.562 342.613 137.06 342.849C138.667 343.414 141.523 333.662 141.523 333.662L137.224 332.651L148.925 332.146L149.49 328.928C149.49 328.928 145.689 329.285 139.723 329.76C138.49 330.469 137.39 331.387 136.472 332.473L136.294 332.696C133.802 335.751 132.879 339.69 132.53 342.596Z" fill="black"/>
<path opacity="0.1" d="M224.749 470.35L228.029 472.52C232.924 471.636 237.395 470.246 237.923 468.061C237.925 468.026 237.925 467.991 237.923 467.957C236.881 467.154 236.19 466.545 236.19 466.545L224.749 470.35Z" fill="black"/>
<path opacity="0.1" d="M215.049 473.918C219.371 473.703 223.678 473.241 227.947 472.535C225.397 471.837 222.806 471.298 220.189 470.922C217.012 470.581 215.383 473.286 215.049 473.918Z" fill="black"/>
<path d="M132.887 346.35C132.887 348.721 139.426 350.237 139.426 350.237L159.339 367.949C159.339 367.949 171.851 373.539 179.811 381.589C187.771 389.638 194.793 382.726 194.793 382.726C203.228 380.645 227.524 351.278 227.524 351.278C227.524 351.278 228.089 384.814 229.227 387.275C230.365 389.735 228.848 396.461 228.186 399.308C227.768 401.682 227.608 404.095 227.709 406.503C227.709 406.503 218.612 441.266 219.371 444.298C220.129 447.331 214.439 461.542 214.439 461.542V473.383C214.439 473.383 236.718 472.528 237.945 467.511C239.173 462.494 232.359 460.308 232.359 460.308V459.075C236.822 456.8 237.663 441.177 237.663 441.177C237.663 441.177 244.305 421.852 245.25 418.633C246.195 415.415 245.25 410.576 245.25 410.576L245.912 406.414C245.912 406.414 247.333 403.567 247.333 403.002C247.519 401.56 248.075 400.19 248.947 399.026C249.989 397.792 247.809 394.856 247.809 394.856L249.706 389.928V384.532L254.169 364.924C254.169 364.924 258.819 342.091 257.204 334.606C255.59 327.122 259.101 323.338 259.101 323.338C251.491 327.322 247.653 318.455 246.396 314.642C246.076 313.661 245.92 313.007 245.92 313.007C245.92 313.007 235.468 309.157 225.738 310.078C223.762 310.238 221.815 310.651 219.943 311.305C209.135 315.192 207.431 331.291 207.431 331.291L197.858 345.882C192.926 358.859 185.531 360.182 185.531 360.182C185.531 360.182 168.184 348.535 167.678 347.963C167.172 347.391 160.567 344.551 160.567 344.551C159.786 343.178 158.591 342.085 157.152 341.429C154.876 340.478 154.69 336.97 154.69 336.97C154.407 328.727 149.572 328.051 149.572 328.051C132.79 326.653 132.887 343.986 132.887 346.35Z" fill="#3F3D56"/>
<path d="M229.398 300.037H239.634V268.306H229.398V300.037Z" fill="#F86D70"/>
<path opacity="0.1" d="M229.398 300.037H239.634V268.306H229.398V300.037Z" fill="black"/>
<path opacity="0.1" d="M256.222 203.411C256.221 203.434 256.221 203.456 256.222 203.478C256.302 203.655 256.396 203.824 256.505 203.984L259.347 208.146L266.741 208.889L266.823 205.961C264.517 205.782 259.265 205.151 256.222 203.411Z" fill="black"/>
<path d="M256.512 203.984C256.512 203.984 256.892 220.648 252.719 222.922C248.545 225.197 246.924 237.044 246.924 237.044C246.924 237.044 259.57 245.354 262.389 249.011C265.208 252.668 271.68 261.379 270.349 263.46C269.017 265.541 273.577 275.018 273.577 275.018C273.577 275.018 265.231 292.069 267.128 298.513C269.025 304.957 269.211 322 269.211 322H272.818C272.818 322 271.68 307.982 271.68 302.296C271.68 296.61 275.467 276.341 275.467 276.341C275.467 276.341 277.177 256.451 275.467 255.886C273.756 255.321 263.713 247.361 262.954 243.756C262.196 240.151 268.266 206.593 268.266 206.593C268.266 206.593 260.492 206.258 256.512 203.984Z" fill="#F86D70"/>
<path opacity="0.1" d="M229.205 265.363C229.551 267.682 230.396 269.898 231.682 271.859L238.689 270.67C238.689 270.67 259.733 265.928 264.078 265.541C266.709 265.194 269.276 264.463 271.695 263.371C270.028 257.468 266.773 252.133 262.285 247.948L259.614 245.473C255.679 241.822 251.118 238.909 246.15 236.873C246.463 237.134 268.541 255.968 263.706 259.662C258.871 263.356 245.853 254.363 245.853 254.363L231.049 241.653L230.514 241.192L229.658 242.522C230.094 242.701 230.518 242.905 230.93 243.132C235.976 245.899 239.72 250.548 241.345 256.065C244.387 266.285 229.205 265.363 229.205 265.363Z" fill="black"/>
<path d="M224.652 312.724C224.652 312.724 238.682 320.492 242.089 316.136C242.833 315.177 244.402 314.761 246.359 314.649C246.039 313.668 245.882 313.014 245.882 313.014C245.882 313.014 235.431 309.164 225.701 310.086C225.061 311.691 224.652 312.724 224.652 312.724Z" fill="#444053"/>
<path d="M231.109 241.207L246.448 254.392C246.448 254.392 259.414 263.416 264.301 259.692C269.188 255.968 246.738 236.896 246.738 236.896C251.696 238.938 256.252 241.842 260.195 245.473L262.865 247.948C269.887 254.452 271.472 254.452 271.71 264.01C271.77 266.366 270.966 269.748 270.349 270.358C268.072 272.588 266.481 288.784 266.83 290.679C267.18 292.574 262.59 308.934 264.078 313.482C265.566 318.031 245.481 311.208 242.081 315.571C238.682 319.934 224.652 312.159 224.652 312.159C224.652 312.159 232.426 292.262 234.323 290.939C236.219 289.616 238.496 279.381 234.323 274.647C230.149 269.912 229.777 265.363 229.777 265.363C229.777 265.363 244.953 266.3 241.91 256.08C241.054 253.117 239.569 250.374 237.556 248.037C235.544 245.7 233.05 243.824 230.246 242.537L231.109 241.207Z" fill="#E8E8F0"/>
<path opacity="0.1" d="M251.581 274.743C251.581 274.743 245.696 285.825 238.087 288.702C237.841 288.791 237.603 288.873 237.343 288.947C229.398 291.363 252.176 278.177 251.581 274.743Z" fill="black"/>
<path d="M169.293 176.698C169.293 176.698 172.134 183.9 174.41 186.361C176.687 188.821 193.558 213.453 193.558 213.453L194.986 216.426L196.214 218.961L207.022 217.823L207.766 213.468L207.349 212.962C206.263 211.662 203.303 208.168 201.317 206.645C198.854 204.757 193.922 198.506 193.922 198.506C193.922 198.506 178.569 182.585 177.431 178.229C176.292 173.874 160.931 147.755 157.524 152.274C154.117 156.793 169.293 176.698 169.293 176.698Z" fill="#FBBEBE"/>
<g opacity="0.1">
<path opacity="0.1" d="M200.654 293.86C199.357 293.748 198.051 293.936 196.838 294.41C194.16 295.711 193.655 299.227 192.167 301.806C190.426 304.823 187.108 306.689 183.694 307.38C183.015 307.512 182.33 307.606 181.641 307.663C183.816 307.874 186.009 307.779 188.157 307.38C191.572 306.689 194.889 304.823 196.63 301.806C198.118 299.227 198.624 295.711 201.302 294.41C202.005 294.094 202.763 293.917 203.533 293.89L200.654 293.86Z" fill="black"/>
<path opacity="0.1" d="M227.077 236.844C227.077 230.935 230.923 225.843 234.092 220.856C237.261 215.869 239.924 209.573 237.417 204.221C235.275 199.65 222.361 193.518 214.907 194.73C222.205 195.674 231.198 200.475 232.954 204.221C235.461 209.573 232.798 215.869 229.629 220.856C226.46 225.843 222.599 230.935 222.614 236.844C222.614 244.47 222.101 250.223 220.003 257.588C219.4 259.707 225.21 262.91 224.317 264.917C221.297 271.607 222.711 279.322 222.227 286.636C222.217 288.064 221.868 289.471 221.208 290.738C219.72 293.184 216.67 293.815 213.702 293.949H216.298C219.765 293.949 223.878 293.682 225.671 290.716C226.331 289.448 226.68 288.042 226.69 286.613C227.174 279.299 225.76 271.577 228.781 264.895C229.688 262.888 223.864 259.692 224.466 257.566C226.564 250.252 227.092 244.47 227.077 236.844Z" fill="black"/>
</g>
<path opacity="0.1" d="M194.986 216.411L196.213 218.946L207.022 217.808L207.766 213.453L207.349 212.947C206.196 213.512 197.56 217.667 194.986 216.411Z" fill="black"/>
<path opacity="0.1" d="M234.895 244.901C234.895 244.901 232.24 240.738 230.722 241.868C229.205 242.998 228.617 238.457 227.747 239.215C226.876 239.973 224.34 242.084 223.283 239.133C222.458 236.784 213.472 221.926 209.827 215.95C208.889 214.404 208.302 213.453 208.302 213.453C208.302 213.453 198.066 218.567 195.604 216.865V220.462L197.686 220.655L208.845 241.467C208.845 241.467 212.356 247.049 212.118 248.996C211.88 250.944 216.618 259.469 217.377 260.034C218.136 260.599 226.303 270.075 226.303 270.075C226.303 270.075 230.477 290.538 226.869 296.224C223.261 301.91 217.012 306.072 217.012 306.072C217.012 306.072 215.13 311.565 215.406 312.137C215.681 312.709 213.219 315.17 214.357 315.928C215.495 316.686 217.012 321.986 217.012 321.986C217.012 321.986 222.324 313.46 225.195 312.137C228.066 310.814 231.741 293.377 231.741 293.377C231.741 293.377 232.79 283.105 232.872 276.475C232.954 269.845 232.619 244.901 234.895 244.901Z" fill="black"/>
<path d="M234.323 244.901C234.323 244.901 231.674 240.738 230.157 241.868C228.639 242.998 228.044 238.457 227.181 239.215C226.318 239.973 223.782 242.084 222.718 239.133C221.885 236.784 212.899 221.926 209.261 215.95L207.736 213.453C207.736 213.453 197.5 218.567 195.031 216.865V220.462L197.121 220.655L208.279 241.467C208.279 241.467 211.798 247.049 211.552 248.996C211.307 250.944 216.016 259.469 216.812 260.034C217.608 260.599 225.738 270.075 225.738 270.075C225.738 270.075 229.911 290.538 226.311 296.224C224.409 299.08 222.095 301.639 219.445 303.82C217.219 305.655 215.652 308.165 214.982 310.97C214.853 311.353 214.807 311.758 214.848 312.159C215.123 312.724 212.661 315.192 213.799 315.95C214.937 316.708 216.469 322.03 216.469 322.03C216.469 322.03 221.781 313.505 224.652 312.182C227.523 310.859 231.206 293.422 231.206 293.422C231.206 293.422 232.247 283.15 232.336 276.52C232.426 269.89 232.091 244.901 234.323 244.901Z" fill="#F86D70"/>
<path opacity="0.1" d="M208.346 331.105C208.346 331.105 216.313 332.592 219.505 334.889C222.696 337.185 207.372 331.291 207.372 331.291L208.346 331.105Z" fill="black"/>
<path opacity="0.1" d="M227.501 351.278C227.501 351.278 235.81 358.198 234.323 364.449C232.835 370.7 228.996 386.427 228.996 386.427L227.501 351.278Z" fill="black"/>
<path opacity="0.1" d="M154.831 337.973C154.831 337.973 143.123 339.252 143.882 340.768C144.64 342.284 154.831 339.371 154.831 339.371V337.973Z" fill="black"/>
<path opacity="0.1" d="M244.737 395.517C244.737 395.517 245.481 396.461 241.136 395.517C236.792 394.573 239.998 391.66 239.998 391.66L244.737 395.517Z" fill="black"/>
<path opacity="0.1" d="M243.249 408.592C243.249 408.592 237.298 409.536 234.107 408.592C230.916 407.648 243.249 408.592 243.249 408.592Z" fill="black"/>
<path opacity="0.1" d="M231.005 459.744C231.005 459.744 229.963 458.606 224.749 460.688C219.534 462.769 217.451 462.865 215.934 462.174C214.416 461.483 231.005 459.744 231.005 459.744Z" fill="black"/>
<path opacity="0.1" d="M236.792 336.36L229.398 346.64C229.398 346.64 233.378 337.639 236.792 336.36Z" fill="black"/>
<path opacity="0.1" d="M222.42 241.868C222.42 241.868 222.101 245.28 217.332 246.61C212.564 247.941 211.656 249.018 211.656 249.018" fill="black"/>
<path opacity="0.1" d="M210.027 217.14C210.027 217.14 203.734 221.599 197.166 220.655L210.027 217.14Z" fill="black"/>
<path opacity="0.1" d="M214.818 312.628C214.818 312.628 216.655 313.78 221.066 308.74L214.818 312.628Z" fill="black"/>
<path opacity="0.1" d="M260.634 259.194C260.812 258.272 260.172 257.417 259.57 256.697L258.335 255.21C258.094 254.906 257.822 254.627 257.524 254.378C256.78 253.805 255.828 253.634 255.054 253.121" fill="black"/>
<path opacity="0.1" d="M660.038 0.0817615C660.038 0.0817615 597.411 -3.69406 604.775 40.159C604.775 40.159 603.288 47.9113 610.34 51.427C610.34 51.427 610.451 48.1789 616.767 49.2864C619.015 49.6588 621.299 49.7685 623.573 49.6134C626.645 49.4015 629.564 48.1961 631.89 46.1795C631.89 46.1795 649.498 38.9103 656.341 10.1605C656.341 10.1605 661.407 3.88732 661.206 2.27442L650.636 6.78607C650.636 6.78607 654.251 14.4046 651.38 20.7373C651.38 20.7373 651.037 7.06109 649.007 7.3584C648.598 7.42529 643.517 9.99701 643.517 9.99701C643.517 9.99701 649.728 23.2644 645.042 32.9121C645.042 32.9121 646.82 16.5601 641.575 10.9558L634.136 15.2965C634.136 15.2965 641.397 29.0025 636.472 40.1887C636.472 40.1887 637.737 23.034 632.567 16.352L625.827 21.6069C625.827 21.6069 632.649 35.1196 628.49 44.3957C628.49 44.3957 627.947 24.4239 624.369 22.9151C624.369 22.9151 618.47 28.118 617.57 30.2437C617.57 30.2437 622.242 40.0549 619.341 45.2281C619.341 45.2281 617.563 31.9235 616.105 31.8492C616.105 31.8492 610.228 40.6644 609.618 46.7147C609.618 46.7147 609.871 37.7285 614.684 31.0168C614.684 31.0168 609.001 31.9904 605.683 35.6696C605.683 35.6696 606.598 29.441 616.135 28.8984C616.135 28.8984 620.992 22.209 622.286 21.8002C622.286 21.8002 612.809 21.0123 607.059 23.5543C607.059 23.5543 612.118 17.675 624.027 20.3508L630.685 14.9175C630.685 14.9175 618.202 13.2154 612.906 15.0959C612.906 15.0959 618.998 9.89295 632.478 13.6836L639.723 9.3578C639.723 9.3578 629.078 7.06852 622.74 7.87126C622.74 7.87126 629.435 4.26639 641.851 8.176L647.058 5.84956C647.058 5.84956 639.262 4.31842 636.978 4.07313C634.694 3.82786 634.575 3.20351 634.575 3.20351C639.514 2.3806 644.585 2.94412 649.222 4.83128C649.222 4.83128 660.232 0.773005 660.038 0.0817615Z" fill="#F97800"/>
<path opacity="0.1" d="M582.794 11.2383C582.794 11.2383 554.526 9.52876 557.836 29.3444C557.836 29.3444 557.174 32.8526 560.343 34.4432C560.343 34.4432 560.395 32.9567 563.252 33.4696C564.267 33.6402 565.298 33.6901 566.324 33.6182C567.712 33.5239 569.032 32.9784 570.081 32.0648C570.081 32.0648 578.04 28.7869 581.135 15.7945C581.135 15.7945 583.419 12.9552 583.329 12.2268L578.554 14.2634C578.554 14.2634 580.19 17.7122 578.903 20.5738C578.903 20.5738 578.747 14.3898 577.832 14.5384C577.646 14.5384 575.347 15.7276 575.347 15.7276C575.347 15.7276 578.159 21.7258 576.039 26.0889C576.039 26.0889 576.843 18.7007 574.47 16.1662L571.107 18.1284C571.107 18.1284 574.395 24.3199 572.164 29.3741C572.164 29.3741 572.736 21.6218 570.401 18.6041L567.358 21.0049C567.358 21.0049 570.438 27.1146 568.563 31.2992C568.563 31.2992 568.318 22.2759 566.696 21.5995C566.696 21.5995 564.033 23.9482 563.624 24.9145C563.624 24.9145 565.737 29.3741 564.427 31.6783C564.427 31.6783 563.624 25.6652 562.94 25.6429C562.94 25.6429 560.291 29.6268 560.009 32.3323C560.141 29.8074 560.931 27.3607 562.3 25.2341C560.767 25.5241 559.353 26.2552 558.231 27.3376C558.231 27.3376 558.647 24.528 562.954 24.2753C562.954 24.2753 565.186 21.2576 565.737 21.0718C565.737 21.0718 561.452 20.715 558.856 21.8671C558.856 21.8671 561.139 19.2062 566.525 20.3805L569.501 17.9277C569.501 17.9277 563.862 17.1845 561.467 18.0095C561.467 18.0095 564.219 15.6608 570.311 17.3703L573.584 15.4155C573.584 15.4155 568.779 14.3749 565.908 14.754C565.908 14.754 568.935 13.1188 574.544 14.8878L576.887 13.8397C576.887 13.8397 573.361 13.1411 572.327 13.037C571.293 12.9329 571.241 12.6431 571.241 12.6431C573.474 12.2719 575.767 12.5293 577.862 13.3863C577.862 13.3863 582.883 11.5505 582.794 11.2383Z" fill="#F97800"/>
<path d="M681.536 483.692C698.056 483.692 711.448 481.429 711.448 478.638C711.448 475.846 698.056 473.583 681.536 473.583C665.017 473.583 651.625 475.846 651.625 478.638C651.625 481.429 665.017 483.692 681.536 483.692Z" fill="#F97800"/>
<path d="M693.907 470.372C695.273 469.261 696.267 467.759 696.756 466.069C697.128 464.367 696.399 462.352 694.763 461.691C692.933 460.992 690.976 462.263 689.496 463.542C688.016 464.82 686.312 466.284 684.378 466.009C685.375 465.105 686.12 463.958 686.543 462.68C686.965 461.403 687.05 460.038 686.788 458.718C686.704 458.171 686.472 457.657 686.119 457.231C685.1 456.146 683.262 456.607 682.042 457.462C678.174 460.182 677.095 465.437 677.073 470.157C676.686 468.455 677.014 466.678 677.006 464.954C676.999 463.23 676.515 461.238 675.035 460.323C674.122 459.833 673.096 459.592 672.059 459.625C670.326 459.558 668.385 459.736 667.202 461.007C665.714 462.583 666.108 465.229 667.388 466.953C668.667 468.678 670.624 469.785 672.424 470.982C673.864 471.84 675.092 473.011 676.017 474.408C676.128 474.604 676.218 474.811 676.285 475.025H687.19C689.629 473.784 691.888 472.219 693.907 470.372Z" fill="#F97800"/>
</g>
<defs>
<linearGradient id="paint0_linear" x1="601.435" y1="375.3" x2="601.435" y2="76.282" gradientUnits="userSpaceOnUse">
<stop stop-color="#808080" stop-opacity="0.25"/>
<stop offset="0.54" stop-color="#808080" stop-opacity="0.12"/>
<stop offset="1" stop-color="#808080" stop-opacity="0.1"/>
</linearGradient>
<linearGradient id="paint1_linear" x1="29644.7" y1="186253" x2="66386.1" y2="186253" gradientUnits="userSpaceOnUse">
<stop stop-color="#808080" stop-opacity="0.25"/>
<stop offset="0.54" stop-color="#808080" stop-opacity="0.12"/>
<stop offset="1" stop-color="#808080" stop-opacity="0.1"/>
</linearGradient>
<clipPath id="clip0">
<rect width="851" height="485" fill="white"/>
</clipPath>
</defs>
</svg>
